<svg width="80" height="80" viewBox="0 0 80 80" fill="none" xmlns="http://www.w3.org/2000/svg">
<path d="M56.6016 48.0937L42.7031 34.2031C42.4375 33.9375 42.4375 33.5 42.7031 33.2266L53.9219 22.0078C57.8672 18.0703 64.3125 18.0703 68.2578 22.0078C72.4922 26.2422 72.4922 33.1719 68.2578 37.4062L57.5703 48.0937C57.3047 48.3594 56.8672 48.3594 56.6016 48.0937Z" fill="#D22A89"/>
<path d="M18.6094 17.3516C21.5156 17.3516 24.2422 18.4766 26.2812 20.5156L37.9219 32.1641L22.5781 47.5L10.9375 35.8516C8.89844 33.8125 7.77344 31.0859 7.77344 28.1797C7.77344 25.2734 8.89844 22.5469 10.9375 20.5078C12.9766 18.4687 15.7031 17.3516 18.6094 17.3516ZM18.6094 16.1797C15.5313 16.1797 12.4453 17.3516 10.1094 19.6875C5.4375 24.3594 5.4375 32.0078 10.1094 36.6875L22.5781 49.1562L39.5781 32.1562L27.1094 19.6875C24.7734 17.3437 21.6953 16.1797 18.6094 16.1797Z" fill="#1A1918"/>
<path d="M61.2891 17.3516C64.1953 17.3516 66.9219 18.4766 68.9609 20.5156C71 22.5547 72.125 25.2812 72.125 28.1875C72.125 31.0937 71 33.8203 68.9609 35.8594L57.3125 47.5L41.9688 32.1562L53.6172 20.5156C55.6562 18.4766 58.3828 17.3516 61.2891 17.3516ZM61.2891 16.1797C58.2109 16.1797 55.125 17.3516 52.7891 19.6797L40.3125 32.1562L57.3125 49.1562L69.7891 36.6875C74.4687 32.0156 74.4687 24.3594 69.7891 19.6875C67.4453 17.3516 64.3672 16.1797 61.2891 16.1797ZM44.5781 48.7266C45.0781 48.7266 45.4844 49.1328 45.4844 49.6328C45.4844 50.1328 45.0781 50.5391 44.5781 50.5391C44.3359 50.5391 44.1094 50.4453 43.9375 50.2734C43.7656 50.1016 43.6719 49.875 43.6719 49.6328C43.6719 49.1328 44.0781 48.7266 44.5781 48.7266ZM44.5859 47.5547C43.4375 47.5547 42.5078 48.4844 42.5078 49.6328C42.5078 50.7812 43.4375 51.7109 44.5859 51.7109C45.7344 51.7109 46.6641 50.7812 46.6641 49.6328C46.6641 48.4844 45.7344 47.5547 44.5859 47.5547Z" fill="#7030A0"/>
<path d="M35.5312 48.6406C36.0312 48.6406 36.4375 49.0469 36.4375 49.5469C36.4375 50.0469 36.0312 50.4531 35.5312 50.4531C35.2891 50.4531 35.0625 50.3594 34.8906 50.1875C34.7188 50.0156 34.625 49.7891 34.625 49.5469C34.625 49.3047 34.7188 49.0781 34.8906 48.9063C35.0625 48.7344 35.2891 48.6406 35.5312 48.6406ZM35.5312 47.4687C34.3828 47.4687 33.4531 48.3984 33.4531 49.5469C33.4531 50.6953 34.3828 51.625 35.5312 51.625C36.6797 51.625 37.6094 50.6953 37.6094 49.5469C37.6172 48.3984 36.6797 47.4687 35.5312 47.4687ZM44.4766 59.1953C44.7188 59.1953 44.9453 59.2891 45.1172 59.4609C45.2891 59.6328 45.3828 59.8594 45.3828 60.1016C45.3828 60.3438 45.2891 60.5703 45.1172 60.7422C44.9453 60.9141 44.7188 61.0078 44.4766 61.0078C44.2344 61.0078 44.0078 60.9141 43.8359 60.7422C43.6641 60.5703 43.5703 60.3438 43.5703 60.1016C43.5703 59.8594 43.6641 59.6328 43.8359 59.4609C44.0078 59.2969 44.2344 59.1953 44.4766 59.1953ZM44.4766 58.0234C43.3281 58.0234 42.3984 58.9531 42.3984 60.1016C42.3984 61.25 43.3281 62.1797 44.4766 62.1797C45.625 62.1797 46.5547 61.25 46.5547 60.1016C46.5625 58.9609 45.625 58.0234 44.4766 58.0234ZM35.4297 59.1094C35.6719 59.1094 35.8984 59.2031 36.0703 59.375C36.2422 59.5469 36.3359 59.7734 36.3359 60.0156C36.3359 60.2578 36.2422 60.4844 36.0703 60.6563C35.8984 60.8281 35.6719 60.9219 35.4297 60.9219C34.9297 60.9219 34.5234 60.5156 34.5234 60.0156C34.5234 59.5156 34.9297 59.1094 35.4297 59.1094ZM35.4297 57.9375C34.2813 57.9375 33.3516 58.8672 33.3516 60.0156C33.3516 61.1641 34.2813 62.0938 35.4297 62.0938C36.5781 62.0938 37.5078 61.1641 37.5078 60.0156C37.5078 58.8672 36.5781 57.9375 35.4297 57.9375ZM48.6016 54.5938C48.8437 54.5938 49.0703 54.6875 49.2422 54.8594C49.4141 55.0313 49.5078 55.2578 49.5078 55.5C49.5078 55.7422 49.4141 55.9687 49.2422 56.1406C49.0703 56.3125 48.8437 56.4063 48.6016 56.4063C48.3594 56.4063 48.1328 56.3125 47.9609 56.1406C47.7891 55.9687 47.6953 55.7422 47.6953 55.5C47.6953 55.2578 47.7891 55.0313 47.9609 54.8594C48.1328 54.6875 48.3594 54.5938 48.6016 54.5938ZM48.6016 53.4219C47.4531 53.4219 46.5234 54.3516 46.5234 55.5C46.5234 56.6484 47.4531 57.5781 48.6016 57.5781C49.75 57.5781 50.6797 56.6484 50.6797 55.5C50.6875 54.3516 49.75 53.4219 48.6016 53.4219ZM31.0078 54.2109C31.5078 54.2109 31.9141 54.6172 31.9141 55.1172C31.9141 55.6172 31.5078 56.0234 31.0078 56.0234C30.5078 56.0234 30.1016 55.6172 30.1016 55.1172C30.1016 54.875 30.1953 54.6484 30.3672 54.4766C30.5391 54.3125 30.7656 54.2109 31.0078 54.2109ZM31.0078 53.0391C29.8594 53.0391 28.9297 53.9688 28.9297 55.1172C28.9297 56.2656 29.8594 57.1953 31.0078 57.1953C32.1563 57.1953 33.0859 56.2656 33.0859 55.1172C33.0859 53.9766 32.1563 53.0391 31.0078 53.0391ZM39.8594 53.8984C40.3594 53.8984 40.7656 54.3047 40.7656 54.8047C40.7656 55.3047 40.3594 55.7109 39.8594 55.7109C39.3594 55.7109 38.9531 55.3047 38.9531 54.8047C38.9531 54.5625 39.0469 54.3359 39.2188 54.1641C39.3906 53.9922 39.6172 53.8984 39.8594 53.8984ZM39.8594 52.7266C38.7109 52.7266 37.7813 53.6563 37.7813 54.8047C37.7813 55.9531 38.7109 56.8828 39.8594 56.8828C41.0078 56.8828 41.9375 55.9531 41.9375 54.8047C41.9375 53.6563 41.0078 52.7266 39.8594 52.7266ZM39.9609 43.5781C40.4609 43.5781 40.8672 43.9844 40.8672 44.4844C40.8672 44.9844 40.4609 45.3906 39.9609 45.3906C39.7188 45.3906 39.4922 45.2969 39.3203 45.125C39.1484 44.9531 39.0547 44.7266 39.0547 44.4844C39.0547 44.2422 39.1484 44.0156 39.3203 43.8438C39.4922 43.6719 39.7188 43.5781 39.9609 43.5781ZM39.9609 42.4062C38.8125 42.4062 37.8828 43.3359 37.8828 44.4844C37.8828 45.6328 38.8125 46.5625 39.9609 46.5625C41.1094 46.5625 42.0391 45.6328 42.0391 44.4844C42.0469 43.3359 41.1094 42.4062 39.9609 42.4062ZM39.7578 64.3516C40.2578 64.3516 40.6641 64.7578 40.6641 65.2578C40.6641 65.5 40.5703 65.7266 40.3984 65.8984C40.2266 66.0703 40 66.1641 39.7578 66.1641C39.2578 66.1641 38.8516 65.7578 38.8516 65.2578C38.8516 65.0156 38.9453 64.7891 39.1172 64.6172C39.2891 64.4453 39.5156 64.3516 39.7578 64.3516ZM39.7578 63.1797C38.6094 63.1797 37.6797 64.1094 37.6797 65.2578C37.6797 66.4062 38.6094 67.3359 39.7578 67.3359C40.9062 67.3359 41.8359 66.4062 41.8359 65.2578C41.8359 64.1094 40.9062 63.1797 39.7578 63.1797Z" fill="#1A1918"/>
</svg>
