<svg width="80" height="80" viewBox="0 0 80 80" fill="none" xmlns="http://www.w3.org/2000/svg">
<path d="M11.2343 39.0938H23.4609L28.0234 29.6954L35.2812 58.0626L38.6484 38.8282H42.4687L45.125 45.5547L48.5312 31.3594L53.1797 50.6172L56.1953 38.5782H71.1875C71.1875 38.5782 74.3515 25.4766 67.3672 19.5079C58.9531 12.3126 51.3906 15.086 44.0625 22.4766L40.1484 26.6563L36.6015 23.0079C36.6015 23.0079 30.3984 14.8438 22.8593 15.9844C15.8984 17.0391 6.84372 25.3985 11.2343 39.0938Z" fill="#D22A89"/>
<path d="M40.1328 70.5547L39.7968 70.3594C39.7734 70.3438 36.7343 68.6094 32.3125 65.3906C28.2343 62.4297 22.1093 57.5547 16.0625 51.1875C13.3125 48.2969 11.1953 45.2578 9.75778 42.1641L10.8203 41.6719C12.2031 44.6484 14.25 47.5859 16.9062 50.3828C27.4453 61.4766 38.3515 68.1484 40.125 69.1953C41.914 68.1328 52.8203 61.4609 63.3437 50.3828C66.2109 47.3594 68.3672 44.1953 69.7422 40.9688C70.9765 38.0938 71.5937 35.1641 71.5781 32.2734C71.5625 27.3672 69.6718 22.5703 66.3906 19.1172C63.5859 16.1641 59.8515 14.5391 55.8672 14.5391C51.8828 14.5391 48.1406 16.1641 45.3437 19.1172L40.125 24.6172L34.9062 19.1172C32.1015 16.1641 28.3672 14.5391 24.3828 14.5391C20.3984 14.5391 16.6562 16.1641 13.8593 19.1172C11.8672 21.2109 10.3593 23.8359 9.49997 26.7031C8.50778 30.0078 8.40622 33.4453 9.19528 36.9375L8.05466 37.1953C7.21872 33.5078 7.32809 29.8672 8.38278 26.3672C9.29684 23.3203 10.8984 20.5391 13.0156 18.3125C16.039 15.125 20.0781 13.375 24.3906 13.375C28.7031 13.375 32.7422 15.1328 35.7656 18.3125L40.1328 22.9141L44.5 18.3125C47.5234 15.125 51.5625 13.375 55.875 13.375C60.1875 13.375 64.2265 15.1328 67.25 18.3125C70.7265 21.9766 72.7343 27.0625 72.7578 32.2656C72.7656 35.3203 72.1172 38.4062 70.8281 41.4297C69.3906 44.7813 67.164 48.0625 64.1953 51.1875C58.1484 57.5547 52.0156 62.4297 47.9453 65.3906C43.5234 68.6094 40.4843 70.3438 40.4531 70.3594L40.1328 70.5547Z" fill="#1A1918"/>
<path d="M35.4766 60.1016L27.9297 30.6172L23.6562 39.7188H5.98438V39.0938H23.2578L28.1094 28.7734L35.3438 57.0547L38.3828 38.5156H42.6719L45.0469 44.5156L48.5234 30.0156L53.1797 49.3047L55.9453 38.2656H74.3047V38.8906H56.4297L53.1641 51.9219L48.5234 32.6875L45.1953 46.5859L42.25 39.1406H38.9062L35.4766 60.1016Z" fill="#7030A0"/>
</svg>
