<svg width="80" height="80" viewBox="0 0 80 80" fill="none" xmlns="http://www.w3.org/2000/svg">
<path d="M52.5781 28.6562C52.2031 28.9297 51.7578 29 51.2734 29C50.7891 29 50.4219 29.1016 50.0547 28.8281C49.0625 29.3438 48.0391 30.4219 48.0391 31.6719H53.9922C53.9922 30.4219 53.5703 29.1719 52.5781 28.6562Z" fill="#D22A89"/>
<path d="M49.6562 26.7266C49.6562 27.0788 49.7962 27.4166 50.0452 27.6657C50.2943 27.9148 50.6321 28.0547 50.9844 28.0547C51.3366 28.0547 51.6744 27.9148 51.9235 27.6657C52.1726 27.4166 52.3125 27.0788 52.3125 26.7266C52.3125 26.3743 52.1726 26.0365 51.9235 25.7874C51.6744 25.5384 51.3366 25.3984 50.9844 25.3984C50.6321 25.3984 50.2943 25.5384 50.0452 25.7874C49.7962 26.0365 49.6562 26.3743 49.6562 26.7266Z" fill="#D22A89"/>
<path d="M58.0312 69.7813H21.9688C21.2812 69.7813 20.7188 69.2188 20.7188 68.5313V18.6641C20.7188 17.9766 21.2812 17.4141 21.9688 17.4141H58.0391C58.7266 17.4141 59.2891 17.9766 59.2891 18.6641V68.5313C59.2812 69.2188 58.7266 69.7813 58.0312 69.7813ZM21.9688 18.0391C21.625 18.0391 21.3438 18.3203 21.3438 18.6641V68.5313C21.3438 68.875 21.625 69.1563 21.9688 69.1563H58.0391C58.3828 69.1563 58.6641 68.875 58.6641 68.5313V18.6641C58.6641 18.3203 58.3828 18.0391 58.0391 18.0391H21.9688Z" fill="#7030A0"/>
<path d="M58.9688 74.8828H21.0313C17.8516 74.8828 15.2734 72.2969 15.2734 69.125V18.0703C15.2734 14.8906 17.8594 12.3125 21.0313 12.3125H31.8047C31.9922 10.375 32.8594 8.57812 34.2656 7.21094C35.8125 5.70313 37.8594 4.875 40.0234 4.875C42.1875 4.875 44.2266 5.70313 45.7812 7.21094C47.1875 8.57812 48.0547 10.375 48.2422 12.3125H58.9766C62.1563 12.3125 64.7344 14.8984 64.7344 18.0703V69.125C64.7344 72.2969 62.1484 74.8828 58.9688 74.8828ZM21.0313 13.4844C18.5 13.4844 16.4453 15.5391 16.4453 18.0703V69.125C16.4453 71.6562 18.5 73.7109 21.0313 73.7109H58.9766C61.5078 73.7109 63.5625 71.6562 63.5625 69.125V18.0703C63.5625 15.5391 61.5078 13.4844 58.9766 13.4844H47.125L47.1094 12.9141C47.0547 11.0703 46.2891 9.33594 44.9609 8.04688C43.6328 6.75781 41.875 6.03906 40.0234 6.03906C38.1719 6.03906 36.4141 6.75781 35.0781 8.04688C33.75 9.33594 32.9922 11.0625 32.9297 12.9141L32.9141 13.4844H21.0313Z" fill="#1A1918"/>
<path d="M40.1953 11.9766C39.2109 11.9766 38.4141 11.1797 38.4141 10.1953C38.4141 9.21094 39.2109 8.41406 40.1953 8.41406C41.1797 8.41406 41.9766 9.21094 41.9766 10.1953C41.9766 11.1797 41.1719 11.9766 40.1953 11.9766ZM40.1953 9.04688C39.5625 9.04688 39.0391 9.5625 39.0391 10.2031C39.0391 10.8438 39.5547 11.3594 40.1953 11.3594C40.8359 11.3594 41.3516 10.8438 41.3516 10.2031C41.3516 9.5625 40.8281 9.04688 40.1953 9.04688Z" fill="#7030A0"/>
<path d="M49.7813 20H30.1797C29.4922 20 28.9297 19.4375 28.9297 18.75V14.1562C28.9297 13.4688 29.4922 12.9062 30.1797 12.9062H49.7813C50.4688 12.9062 51.0313 13.4688 51.0313 14.1562V18.75C51.0313 19.4375 50.4688 20 49.7813 20ZM30.1797 13.5312C29.8359 13.5312 29.5547 13.8125 29.5547 14.1562V18.75C29.5547 19.0938 29.8359 19.375 30.1797 19.375H49.7813C50.125 19.375 50.4063 19.0938 50.4063 18.75V14.1562C50.4063 13.8125 50.125 13.5312 49.7813 13.5312H30.1797ZM50.7031 28.3203C49.625 28.3203 48.7422 27.4375 48.7422 26.3594C48.7422 25.2812 49.625 24.3984 50.7031 24.3984C51.7813 24.3984 52.6641 25.2812 52.6641 26.3594C52.6641 27.4375 51.7891 28.3203 50.7031 28.3203ZM50.7031 25.0234C49.9688 25.0234 49.3672 25.625 49.3672 26.3594C49.3672 27.0938 49.9688 27.6953 50.7031 27.6953C51.4375 27.6953 52.0391 27.0938 52.0391 26.3594C52.0391 25.625 51.4453 25.0234 50.7031 25.0234Z" fill="#1A1918"/>
<path d="M54.4687 31.9844H46.9453V31.6719C46.9453 30.2266 47.7578 28.9297 49.0547 28.2891L49.2187 28.2109L49.3672 28.3125C49.7656 28.5859 50.2266 28.7266 50.7031 28.7266C51.1797 28.7266 51.6484 28.5859 52.0391 28.3125L52.1875 28.2109L52.3516 28.2891C53.6562 28.9297 54.4609 30.2188 54.4609 31.6719V31.9844H54.4687ZM47.5859 31.3594H53.8281C53.7266 30.3359 53.1406 29.4375 52.2344 28.9297C51.7734 29.2031 51.25 29.3516 50.7031 29.3516C50.1641 29.3516 49.6328 29.2031 49.1719 28.9297C48.2734 29.4375 47.6875 30.3359 47.5859 31.3594ZM27.6875 25.0625H35.7969V25.6875H27.6875V25.0625ZM27.6875 30.9297H41.6562V31.5547H27.6875V30.9297ZM27.6875 36.7969H32.4297V37.4219H27.6875V36.7969ZM27.6875 42.6562H54.1641V43.2812H27.6875V42.6562ZM27.6875 48.5234H49.0781V49.1484H27.6875V48.5234ZM27.6875 54.3906H34.6719V55.0156H27.6875V54.3906ZM48.3828 63.4453H54.1641V64.0703H48.3828V63.4453Z" fill="#1A1918"/>
</svg>
