<svg width="40" height="40" viewBox="0 0 40 40" fill="#" xmlns="http://www.w3.org/2000/svg">
<path d="M21.3551 1.39491L38.6051 18.6449C39.8126 19.8524 38.9577 21.9167 37.25 21.9167H35.3333V33.4167C35.3333 34.9417 34.7275 36.4042 33.6492 37.4825C32.5708 38.5609 31.1083 39.1667 29.5833 39.1667H27.6666V25.75C27.6667 24.2833 27.1063 22.8721 26.1002 21.805C25.094 20.7379 23.7181 20.0956 22.254 20.0096L21.9166 20H18.0833C16.5583 20 15.0958 20.6058 14.0174 21.6841C12.9391 22.7625 12.3333 24.225 12.3333 25.75V39.1667H10.4166C8.89164 39.1667 7.42911 38.5609 6.35078 37.4825C5.27244 36.4042 4.66664 34.9417 4.66664 33.4167V21.9167H2.74997C1.04414 21.9167 0.187389 19.8524 1.39489 18.6449L18.6449 1.39491C19.0043 1.03559 19.4917 0.83374 20 0.83374C20.5082 0.83374 20.9956 1.03559 21.3551 1.39491ZM21.9166 23.8333C22.425 23.8333 22.9125 24.0353 23.2719 24.3947C23.6314 24.7542 23.8333 25.2417 23.8333 25.75V39.1667H16.1666V25.75C16.1667 25.2805 16.3391 24.8274 16.651 24.4766C16.963 24.1258 17.3928 23.9017 17.8591 23.8467L18.0833 23.8333H21.9166Z" fill="#D22A89"/>
</svg>
