<svg width="40" height="40" viewBox="0 0 40 40" fill="none" xmlns="http://www.w3.org/2000/svg">
<mask id="mask0_5666_4531" style="mask-type:luminance" maskUnits="userSpaceOnUse" x="0" y="0" width="40" height="40">
<path d="M40 0H0V40H40V0Z" fill="white"/>
</mask>
<g mask="url(#mask0_5666_4531)">
<path d="M25.625 0.625C26.0376 0.625 26.45 0.625 26.875 0.625C26.875 1.83672 26.875 3.04844 26.875 4.29687C26.4882 4.39476 26.1014 4.49265 25.7029 4.59351C25.4554 4.65616 25.208 4.71882 24.9606 4.78149C24.5692 4.88062 24.1778 4.97973 23.7865 5.07873C23.4704 5.15871 23.1543 5.23875 22.8382 5.31885C22.7186 5.34914 22.599 5.37941 22.4794 5.40965C22.1488 5.49324 21.8183 5.5774 21.488 5.66228C21.3244 5.70408 21.1607 5.74509 20.9969 5.78611C20.8914 5.81306 20.7858 5.84005 20.6803 5.86708C20.5874 5.89054 20.4946 5.914 20.3989 5.93817C20.0694 6.04339 19.7934 6.18475 19.6094 6.48437C19.451 6.97773 19.4214 7.45313 19.4044 7.96873C19.4014 8.0442 19.3983 8.1196 19.3952 8.19733C19.3879 8.38153 19.3812 8.56573 19.3751 8.75C19.4438 8.7488 19.5126 8.74753 19.5835 8.74627C22.2555 8.70487 22.2555 8.70487 23.4971 9.07107C23.8392 9.16513 24.0648 9.1304 24.3897 8.98713C25.186 8.64607 26.1312 8.60013 26.9581 8.87693C27.302 9.02273 27.5944 9.22167 27.8852 9.45493C28.049 9.55353 28.049 9.55353 28.2441 9.47787C28.4141 9.38747 28.5719 9.2934 28.7306 9.1846C29.548 8.67473 30.4917 8.6072 31.4292 8.804C32.2576 9.08327 32.982 9.59727 33.3991 10.3763C33.805 11.2471 33.941 12.2793 33.6231 13.208C33.5517 13.3865 33.5517 13.3865 33.4375 13.5937C33.4114 13.6416 33.3854 13.6894 33.3584 13.7387C33.1142 14.1449 32.8166 14.4583 32.4732 14.7797C32.4057 14.8433 32.4057 14.8433 32.3368 14.9083C32.1486 15.0852 31.96 15.2615 31.7679 15.4341C31.1993 15.9084 31.1993 15.9084 30.9061 16.5507C30.9471 16.7755 31.014 16.9736 31.0938 17.1875C31.252 17.9067 31.2786 18.6163 31.2745 19.3506C31.2743 19.4059 31.2741 19.4611 31.2739 19.518C31.2694 20.3495 31.2434 21.1481 31.0157 21.9531C30.998 22.0163 30.9804 22.0795 30.9622 22.1447C30.9016 22.3553 30.8375 22.5644 30.7716 22.7735C30.7427 22.8665 30.7427 22.8665 30.7132 22.9615C30.4736 23.6703 30.128 24.2375 29.7657 24.9219C31.0806 24.9477 32.3954 24.9735 33.75 25C33.7474 24.6843 33.7446 24.3685 33.7418 24.0433C33.7403 23.7853 33.739 23.5273 33.7379 23.2693C33.7367 23.0003 33.7351 22.7315 33.7323 22.4625C33.7159 20.6987 33.81 18.9805 34.1993 17.2559C34.219 17.1661 34.2387 17.0763 34.259 16.9839C34.508 15.8837 34.8292 14.8028 35.2344 13.75C34.9508 13.75 34.6672 13.75 34.375 13.75C34.375 13.3375 34.375 12.925 34.375 12.5C35.6126 12.5 36.85 12.5 38.125 12.5C38.118 11.5591 38.118 11.5591 38.1088 10.6181C38.1045 10.2339 38.1005 9.84973 38.098 9.46553C38.096 9.15553 38.0928 8.84553 38.0889 8.53553C38.0876 8.41767 38.0867 8.29987 38.0862 8.18207C38.1128 7.257 38.1128 7.257 37.8125 6.40625C37.4893 6.09221 37.2443 5.95671 36.8 5.84715C36.7477 5.83388 36.6954 5.82061 36.6416 5.80693C36.47 5.76369 36.2979 5.72227 36.1258 5.68085C36.005 5.65074 35.884 5.62052 35.7632 5.59018C35.4453 5.51071 35.127 5.43275 34.8086 5.35513C34.4884 5.27683 34.1686 5.19721 33.8488 5.11765C33.4871 5.0277 33.1254 4.93785 32.7634 4.84917C32.7074 4.83543 32.6516 4.82169 32.5939 4.80754C32.4444 4.77085 32.2948 4.73427 32.1453 4.69771C31.6373 4.56889 31.1314 4.43191 30.625 4.29687C30.625 3.08515 30.625 1.87344 30.625 0.625C31.0376 0.625 31.45 0.625 31.875 0.625C31.9008 1.47578 31.9266 2.32656 31.9532 3.20313C32.546 3.34724 32.546 3.34724 33.1507 3.49426C33.4028 3.55609 33.6549 3.61799 33.9069 3.68011C34.3058 3.77845 34.7048 3.87656 35.1042 3.9732C35.4266 4.05123 35.7488 4.13038 36.0707 4.21027C36.1928 4.24037 36.315 4.27009 36.4374 4.29938C38.4986 4.79405 38.4986 4.79405 39.0625 5.70313C39.329 6.19747 39.42 6.60179 39.4105 7.1602C39.4105 7.23193 39.4106 7.30367 39.4107 7.3776C39.4104 7.6122 39.408 7.84673 39.4056 8.08133C39.405 8.245 39.4046 8.40867 39.4042 8.57227C39.403 9.00113 39.4 9.43 39.3965 9.8588C39.3933 10.2971 39.3919 10.7355 39.3903 11.1739C39.387 12.0326 39.3815 12.8913 39.375 13.75C38.4985 13.7758 37.622 13.8015 36.7188 13.8281C35.8732 16.2721 35.2123 18.6541 35.1142 21.254C35.111 21.3338 35.1079 21.4136 35.1046 21.4959C35.0684 22.4553 35.0512 23.4151 35.0342 24.375C35.0308 24.5584 35.0274 24.7418 35.024 24.9252C35.0158 25.3668 35.0078 25.8084 35 26.25C34.8852 26.2486 34.8852 26.2486 34.768 26.2472C34.044 26.2389 33.32 26.2353 32.5958 26.2361C32.2236 26.2363 31.8515 26.2349 31.4793 26.2299C31.1196 26.2251 30.7601 26.2246 30.4003 26.2269C30.2636 26.2271 30.1268 26.2257 29.9902 26.2228C29.1986 26.1945 29.1986 26.1945 28.5012 26.5137C28.306 26.7293 28.1399 26.9527 27.9688 27.1875C25.9697 29.0531 23.3638 30.0398 20.6446 30.0244C20.5896 30.0242 20.5345 30.024 20.4778 30.0238C19.6475 30.0193 18.851 29.9923 18.047 29.7656C17.9846 29.7484 17.9222 29.7312 17.8579 29.7135C16.8636 29.4303 15.9658 29.0279 15.0676 28.5183C14.9172 28.4349 14.7632 28.3581 14.6094 28.2813C13.952 28.9387 13.952 28.9387 13.2813 29.6094C13.4246 29.8959 13.5353 30.0366 13.7598 30.2539C13.8164 30.3091 13.873 30.3643 13.9314 30.4211C13.9746 30.4627 14.018 30.5041 14.0626 30.5469C13.9476 30.8122 13.7996 30.9861 13.5962 31.1904C13.5314 31.2559 13.4666 31.3214 13.3998 31.3889C13.3285 31.4601 13.2572 31.5312 13.1838 31.6046C13.108 31.6808 13.0323 31.7571 12.9566 31.8333C12.751 32.0403 12.5449 32.2469 12.3386 32.4532C12.2096 32.5823 12.0806 32.7116 11.9518 32.8409C11.5014 33.2927 11.0507 33.7441 10.5996 34.1951C10.1802 34.6143 9.76169 35.0345 9.34362 35.455C8.98389 35.8168 8.62355 36.1779 8.26275 36.5387C8.04762 36.7537 7.83275 36.9691 7.61849 37.185C7.41655 37.3885 7.21382 37.5912 7.01055 37.7933C6.90155 37.9021 6.79329 38.0117 6.68509 38.1212C5.87248 38.9258 5.06443 39.3923 3.91607 39.4092C2.96543 39.4029 2.19431 39.1016 1.48931 38.4549C0.748107 37.6737 0.586551 36.7831 0.603386 35.7471C0.650781 34.5983 1.40562 33.7931 2.18385 33.024C2.26171 32.9462 2.33952 32.8683 2.41728 32.7905C2.62672 32.5809 2.83688 32.3721 3.04718 32.1635C3.2675 31.9447 3.48715 31.7251 3.70687 31.5057C4.12225 31.091 4.53822 30.677 4.95441 30.2631C5.42854 29.7917 5.902 29.3195 6.3754 28.8472C7.34849 27.8766 8.32242 26.9067 9.29695 25.9375C9.56335 26.0629 9.73582 26.2035 9.94149 26.416C9.99662 26.4726 10.0518 26.5292 10.1087 26.5875C10.1502 26.6308 10.1917 26.6741 10.2344 26.7187C10.4807 26.6099 10.6455 26.4825 10.8338 26.2909C10.8857 26.2385 10.9376 26.1861 10.991 26.1322C11.0442 26.0776 11.0975 26.0231 11.1524 25.9668C11.2342 25.884 11.2342 25.884 11.3175 25.7995C11.4516 25.6636 11.5854 25.5273 11.7188 25.3906C11.6745 25.3122 11.6745 25.3122 11.6292 25.2323C11.117 24.3202 10.6644 23.4006 10.3614 22.3975C10.3428 22.336 10.3241 22.2745 10.305 22.2112C10.0388 21.2841 9.96802 20.3734 9.97075 19.4141C9.97082 19.3555 9.97089 19.297 9.97095 19.2367C9.98215 16.3295 11.1632 13.6602 13.225 11.6121C14.5856 10.3199 16.2588 9.49593 18.047 8.9844C18.0468 8.8746 18.0468 8.8746 18.0467 8.7626C18.0474 8.48647 18.0504 8.21047 18.0546 7.9344C18.056 7.81573 18.0566 7.69713 18.0563 7.57847C18.0552 6.70913 18.1411 5.97476 18.7496 5.29457C19.4157 4.64585 20.3479 4.48427 21.2211 4.27124C21.3462 4.24021 21.4713 4.20913 21.5964 4.17799C21.9234 4.09677 22.2506 4.01632 22.5778 3.93603C22.9716 3.83924 23.3651 3.74147 23.7587 3.64387C24.3546 3.49621 24.9508 3.34979 25.547 3.20313C25.5727 2.35235 25.5985 1.50156 25.625 0.625ZM24.1144 10.9128C23.8556 11.2731 23.8038 11.5761 23.7989 12.0166C23.7967 12.1073 23.7944 12.1981 23.7922 12.2915C23.8934 13.0973 24.4753 13.5791 25.0257 14.1187C25.1129 14.2053 25.2 14.2919 25.2871 14.3787C25.515 14.6055 25.7439 14.8313 25.973 15.0568C26.2071 15.2877 26.4403 15.5196 26.6736 15.7513C27.1306 16.2049 27.5884 16.6575 28.047 17.1094C28.3318 16.9891 28.5156 16.8177 28.7342 16.6011C28.7703 16.5655 28.8064 16.5299 28.8436 16.4932C28.9626 16.3757 29.081 16.2577 29.1993 16.1395C29.2822 16.0571 29.365 15.9748 29.4479 15.8925C29.6216 15.7197 29.7949 15.5467 29.968 15.3735C30.1889 15.1526 30.4109 14.9327 30.6332 14.7132C30.8048 14.5433 30.9756 14.3728 31.1463 14.202C31.2278 14.1207 31.3095 14.0397 31.3915 13.9589C32.1239 13.245 32.1239 13.245 32.4634 12.2998C32.4573 11.6274 32.4179 11.1816 31.9459 10.6885C31.4758 10.2497 31.1372 10.0561 30.4834 10.0488C30.3474 10.0455 30.3474 10.0455 30.2085 10.0421C29.5524 10.1245 29.1525 10.4909 28.711 10.957C28.6616 11.0078 28.6123 11.0585 28.5615 11.1109C28.4413 11.2347 28.3219 11.3591 28.2032 11.4844C27.8834 11.3389 27.6793 11.1215 27.4415 10.8691C26.9081 10.3267 26.5658 10.0691 25.7813 10.0391C24.9865 10.067 24.6293 10.3231 24.1144 10.9128ZM15.9376 14.375C15.8882 14.418 15.8389 14.461 15.788 14.5053C14.7092 15.5029 14.0868 16.9365 13.8282 18.3594C13.8178 18.5787 13.8178 18.5787 13.8282 18.75C14.3263 18.8408 14.8223 18.9111 15.3126 18.75C15.7359 18.4295 15.9915 17.9355 16.2637 17.489C16.5174 17.0917 16.8104 16.7243 17.0997 16.3525C17.207 16.2123 17.3142 16.0721 17.4213 15.9317C17.4996 15.8295 17.578 15.7272 17.6563 15.625C17.9191 16.1895 18.1378 16.767 18.3527 17.3511C18.4071 17.4976 18.4615 17.6441 18.5159 17.7907C18.649 18.1491 18.7816 18.5078 18.9139 18.8667C18.9886 19.0693 19.0636 19.2719 19.1388 19.4743C19.2096 19.6645 19.2798 19.8548 19.3496 20.0453C19.3814 20.1306 19.4133 20.2159 19.446 20.3038C19.4878 20.4169 19.4878 20.4169 19.5305 20.5324C19.5936 20.7155 19.5936 20.7155 19.7657 20.7813C19.9974 20.2481 20.2289 19.715 20.4604 19.1819C20.568 18.9343 20.6755 18.6867 20.7831 18.4391C20.9068 18.1543 21.0306 17.8694 21.1542 17.5845C21.1928 17.496 21.2312 17.4074 21.2709 17.3162C21.3068 17.2333 21.3428 17.1505 21.3799 17.0651C21.4272 16.956 21.4272 16.956 21.4756 16.8448C21.5596 16.6476 21.64 16.4493 21.7188 16.25C21.9785 16.4912 22.174 16.7565 22.3667 17.0517C22.3973 17.0979 22.4279 17.1441 22.4594 17.1917C22.5563 17.3382 22.6527 17.485 22.7491 17.6319C22.8464 17.7795 22.9438 17.927 23.0413 18.0745C23.1292 18.2077 23.2169 18.341 23.3046 18.4743C23.4198 18.6591 23.4198 18.6591 23.5157 18.75C23.638 18.7573 23.7606 18.7592 23.8832 18.7589C24.0004 18.7589 24.0004 18.7589 24.1201 18.7589C24.2052 18.7585 24.2902 18.7581 24.3778 18.7576C24.4644 18.7575 24.551 18.7574 24.6402 18.7573C24.918 18.7569 25.1959 18.7559 25.4737 18.7549C25.6616 18.7545 25.8494 18.7541 26.0372 18.7538C26.4988 18.7529 26.9604 18.7517 27.422 18.75C27.3904 18.331 27.2673 18.1577 26.9694 17.8675C26.9306 17.8291 26.8917 17.7906 26.8516 17.751C26.7674 17.668 26.6826 17.5854 26.5975 17.5032C26.4622 17.3726 26.3282 17.2408 26.1944 17.1087C25.9097 16.8278 25.6234 16.5486 25.337 16.2695C25.0062 15.9469 24.6761 15.6237 24.3472 15.2991C24.2161 15.1703 24.084 15.0424 23.9518 14.9146C23.4114 14.3863 22.8942 13.8503 22.7247 13.0908C22.6791 12.9361 22.6791 12.9361 22.5782 12.8125C22.276 12.6682 21.9707 12.6225 21.6407 12.5781C21.5555 12.5663 21.4703 12.5543 21.3825 12.5421C19.3691 12.3329 17.4258 13.0227 15.9376 14.375ZM17.2657 18.2813C17.1826 18.3789 17.1027 18.4792 17.0243 18.5806C16.9759 18.643 16.9275 18.7054 16.8776 18.7697C16.8268 18.8357 16.776 18.9017 16.7237 18.9697C16.6732 19.0349 16.6227 19.0999 16.5706 19.167C16.3787 19.4152 16.1898 19.6607 16.0157 19.9219C15.7972 19.9557 15.7972 19.9557 15.5219 19.9619C15.4237 19.9646 15.3256 19.9674 15.2244 19.9703C15.1214 19.972 15.0183 19.9738 14.9122 19.9756C14.8075 19.9782 14.7028 19.9809 14.5982 19.9837C14.3415 19.9901 14.0849 19.9955 13.8282 20C13.947 21.5583 14.5774 22.9095 15.6251 24.0625C15.6896 24.1365 15.6896 24.1365 15.7554 24.2121C16.925 25.477 18.724 26.1754 20.4203 26.2525C22.3784 26.2355 24.1132 25.5475 25.517 24.1751C26.5607 23.0823 27.422 21.5472 27.422 20C27.3648 20.0013 27.3076 20.0025 27.2487 20.0039C26.7074 20.0151 26.1662 20.0213 25.6248 20.0221C25.3465 20.0227 25.0684 20.0251 24.7902 20.0319C22.9848 20.0741 22.9848 20.0741 22.5624 19.8172C22.2904 19.5568 22.1462 19.2656 22.0313 18.9063C21.9039 19.0974 21.8173 19.2597 21.7282 19.4685C21.686 19.5669 21.686 19.5669 21.643 19.6675C21.613 19.738 21.583 19.8086 21.5522 19.8813C21.5212 19.9538 21.4902 20.0263 21.4583 20.101C21.3594 20.3325 21.2608 20.5642 21.1622 20.7959C21.0952 20.9529 21.0281 21.1099 20.961 21.2669C20.7967 21.6518 20.6328 22.0369 20.4688 22.4219C19.9532 22.4219 19.4376 22.4219 18.9063 22.4219C18.8262 22.2081 18.7462 21.9943 18.6637 21.774C18.5848 21.5635 18.506 21.353 18.4271 21.1425C18.3729 20.9979 18.3188 20.8533 18.2646 20.7087C17.9611 19.8981 17.6568 19.0881 17.3438 18.2813C17.318 18.2813 17.2922 18.2813 17.2657 18.2813ZM12.4457 26.5991C12.3942 26.6515 12.3426 26.7039 12.2895 26.7578C12.2056 26.8424 12.2056 26.8424 12.1201 26.9287C12.0326 27.0181 12.0326 27.0181 11.9434 27.1094C11.8845 27.169 11.8256 27.2286 11.7649 27.2901C11.619 27.4378 11.4734 27.5859 11.3282 27.7344C11.4536 28.0008 11.5942 28.1733 11.8067 28.3789C11.8916 28.4617 11.8916 28.4617 11.9782 28.5461C12.0215 28.5877 12.0648 28.6291 12.1094 28.6719C12.3472 28.5657 12.5097 28.4465 12.6917 28.2611C12.74 28.2123 12.7884 28.1634 12.8382 28.1131C12.8878 28.0623 12.9373 28.0114 12.9884 27.959C13.0391 27.9075 13.0898 27.8561 13.1422 27.8031C13.267 27.6763 13.3915 27.5493 13.5157 27.4219C13.4304 27.1659 13.373 27.1159 13.169 26.9531C12.9776 26.7997 12.874 26.6937 12.7344 26.4844C12.5686 26.4673 12.5686 26.4673 12.4457 26.5991ZM9.11075 28.0615C9.00475 28.1703 9.00475 28.1703 8.89655 28.2813C8.82542 28.3537 8.75435 28.4263 8.68109 28.501C8.62649 28.5574 8.57189 28.6138 8.51569 28.6719C8.62082 28.9062 8.73722 29.0688 8.91915 29.2493C8.96922 29.2994 9.01922 29.3494 9.07082 29.4009C9.12469 29.454 9.17855 29.5071 9.23409 29.5618C9.31695 29.6443 9.31695 29.6443 9.40155 29.7286C9.57789 29.9041 9.75475 30.079 9.93169 30.2539C10.0515 30.3729 10.1712 30.4919 10.2909 30.6109C10.5842 30.9025 10.8779 31.1936 11.172 31.4844C11.4384 31.3589 11.6108 31.2183 11.8165 31.0059C11.8716 30.9493 11.9268 30.8927 11.9837 30.8343C12.0252 30.7911 12.0667 30.7477 12.1094 30.7031C12.0046 30.47 11.8886 30.3063 11.7084 30.1257C11.6589 30.0756 11.6094 30.0256 11.5583 29.9741C11.505 29.921 11.4516 29.8679 11.3966 29.8132C11.3416 29.7582 11.2868 29.7031 11.2302 29.6464C11.1143 29.5304 10.9982 29.4146 10.8819 29.2989C10.7033 29.1212 10.5256 28.9427 10.348 28.7641C10.2353 28.6515 10.1226 28.539 10.0098 28.4265C9.92975 28.3459 9.92975 28.3459 9.84802 28.2638C9.79849 28.2147 9.74895 28.1657 9.69795 28.1151C9.65435 28.0717 9.61075 28.0282 9.56582 27.9834C9.35855 27.8127 9.30275 27.8853 9.11075 28.0615ZM7.07875 30.0859C7.03155 30.1331 6.98442 30.1804 6.93582 30.2291C6.88602 30.2783 6.83622 30.3276 6.78489 30.3784C6.61941 30.5424 6.45453 30.7069 6.28973 30.8716C6.17511 30.9857 6.06047 31.0998 5.94583 31.2139C5.70505 31.4537 5.46459 31.6939 5.22432 31.9343C4.91706 32.2415 4.60874 32.5477 4.30012 32.8537C4.06273 33.0893 3.82605 33.3257 3.58956 33.5623C3.47625 33.6754 3.36268 33.7883 3.24886 33.9009C3.08915 34.0591 2.93047 34.2182 2.772 34.3776C2.72516 34.4235 2.67831 34.4695 2.63005 34.5169C2.25509 34.8975 1.99149 35.29 1.91167 35.8252C1.91779 36.4976 1.95723 36.9434 2.42925 37.4365C2.89931 37.8753 3.23785 38.0689 3.89165 38.0762C3.98239 38.0784 4.07313 38.0806 4.16662 38.0829C4.78598 38.0051 5.19827 37.6601 5.62246 37.2256C5.67284 37.1752 5.72323 37.1249 5.77513 37.073C5.93989 36.9081 6.10351 36.742 6.26715 36.5759C6.38179 36.4607 6.4965 36.3455 6.61128 36.2305C6.91202 35.9285 7.21175 35.6257 7.51135 35.3227C7.81769 35.0131 8.12489 34.7045 8.43209 34.3957C9.03375 33.7907 9.63442 33.1847 10.2344 32.5781C10.1296 32.345 10.0136 32.1813 9.83342 32.0007C9.78389 31.9506 9.73435 31.9006 9.68329 31.8491C9.62995 31.796 9.57655 31.7429 9.52155 31.6882C9.46662 31.6332 9.41175 31.5781 9.35515 31.5214C9.23929 31.4054 9.12315 31.2896 9.00689 31.1739C8.82829 30.9962 8.65062 30.8177 8.47295 30.6391C8.36029 30.5265 8.24755 30.414 8.13482 30.3015C8.05475 30.2209 8.05475 30.2209 7.97302 30.1388C7.92349 30.0897 7.87395 30.0407 7.82295 29.9901C7.77935 29.9467 7.73575 29.9032 7.69082 29.8584C7.42202 29.637 7.28102 29.8867 7.07875 30.0859Z" fill="#D12988"/>
<path d="M27.3438 9.06242C27.53 9.18755 27.7101 9.31448 27.8851 9.45488C28.0489 9.55348 28.0489 9.55348 28.244 9.47775C28.414 9.38742 28.5718 9.29328 28.7304 9.18448C29.548 8.67468 30.4916 8.60708 31.4291 8.80395C32.2576 9.08322 32.982 9.59722 33.399 10.3762C33.8049 11.247 33.941 12.2793 33.623 13.2079C33.3026 14.0091 32.7034 14.5949 32.0999 15.1877C31.9632 15.3219 31.8273 15.457 31.6916 15.5923C31.1873 16.0931 30.6742 16.5747 30.127 17.0289C29.2061 17.7587 29.2061 17.7587 28.7201 18.7798C28.6956 19.1255 28.713 19.4667 28.7398 19.8118C28.8353 21.5696 27.8893 23.4593 26.7498 24.7513C25.3104 26.3242 23.3658 27.3901 21.2089 27.511C19.1114 27.5988 17.039 27.0933 15.444 25.6596C15.24 25.4695 15.0418 25.2742 14.8438 25.0781C14.791 25.03 14.7382 24.9819 14.6838 24.9325C13.3494 23.699 12.5518 21.645 12.471 19.8589C12.4258 17.6127 13.0483 15.5597 14.6139 13.9103C14.7162 13.8045 14.819 13.6991 14.9219 13.5937C14.9682 13.5425 15.0145 13.4913 15.0622 13.4387C15.956 12.4741 17.2671 11.8323 18.5156 11.4843C18.6363 11.4493 18.6363 11.4493 18.7594 11.4135C19.993 11.0997 21.3514 11.1639 22.5781 11.4843C22.583 11.4102 22.5878 11.3361 22.5928 11.2597C22.713 10.4445 23.2676 9.78368 23.8867 9.27728C24.8705 8.59275 26.2783 8.48542 27.3438 9.06242ZM24.1144 10.9127C23.8556 11.273 23.8037 11.5759 23.7988 12.0165C23.7966 12.1073 23.7944 12.198 23.7921 12.2915C23.8934 13.0972 24.4752 13.579 25.0256 14.1186C25.1128 14.2052 25.2 14.2919 25.287 14.3786C25.515 14.6054 25.7438 14.8311 25.9728 15.0567C26.207 15.2877 26.4402 15.5195 26.6736 15.7513C27.1305 16.2048 27.5884 16.6574 28.0469 17.1093C28.3317 16.9889 28.5155 16.8176 28.7341 16.601C28.7702 16.5654 28.8064 16.5298 28.8436 16.4931C28.9626 16.3757 29.0809 16.2576 29.1992 16.1395C29.2821 16.0571 29.365 15.9747 29.4478 15.8924C29.6215 15.7197 29.7948 15.5467 29.968 15.3734C30.1888 15.1525 30.4108 14.9327 30.6331 14.7131C30.8046 14.5433 30.9755 14.3727 31.1462 14.2019C31.2277 14.1207 31.3094 14.0396 31.3914 13.9588C32.1238 13.2449 32.1238 13.2449 32.4634 12.2997C32.4572 11.6273 32.4178 11.1815 31.9458 10.6884C31.4758 10.2497 31.1372 10.0559 30.4834 10.0487C30.3473 10.0454 30.3473 10.0454 30.2084 10.042C29.5523 10.1245 29.1524 10.4909 28.7109 10.9569C28.6616 11.0077 28.6122 11.0585 28.5614 11.1107C28.4412 11.2346 28.3218 11.3591 28.2031 11.4843C27.8834 11.3387 27.6792 11.1214 27.4414 10.8691C26.908 10.3265 26.5657 10.0689 25.7812 10.039C24.9864 10.0669 24.6292 10.323 24.1144 10.9127ZM15.9375 14.3749C15.8882 14.4179 15.8388 14.4609 15.788 14.5052C14.709 15.5029 14.0867 16.9364 13.8281 18.3593C13.8178 18.5787 13.8178 18.5787 13.8281 18.7499C14.3262 18.8407 14.8222 18.911 15.3125 18.7499C15.7358 18.4294 15.9914 17.9354 16.2636 17.4889C16.5173 17.0916 16.8104 16.7243 17.0996 16.3525C17.2069 16.2123 17.3142 16.072 17.4212 15.9316C17.4996 15.8294 17.5779 15.7271 17.6562 15.6249C17.919 16.1893 18.1378 16.7669 18.3526 17.351C18.407 17.4975 18.4614 17.6441 18.5158 17.7905C18.649 18.1491 18.7816 18.5077 18.9138 18.8666C18.9885 19.0693 19.0635 19.2718 19.1388 19.4742C19.2095 19.6644 19.2798 19.8547 19.3496 20.0452C19.3814 20.1305 19.4132 20.2158 19.446 20.3037C19.4878 20.4169 19.4878 20.4169 19.5304 20.5323C19.5936 20.7155 19.5936 20.7155 19.7656 20.7811C19.9973 20.2481 20.2288 19.7149 20.4604 19.1818C20.5679 18.9342 20.6754 18.6866 20.783 18.4391C20.9068 18.1542 21.0305 17.8693 21.1542 17.5845C21.1926 17.4959 21.2312 17.4073 21.2708 17.3161C21.3068 17.2332 21.3428 17.1503 21.3798 17.065C21.4272 16.9559 21.4272 16.9559 21.4755 16.8447C21.5595 16.6475 21.64 16.4493 21.7188 16.2499C21.9784 16.4911 22.174 16.7564 22.3666 17.0516C22.3972 17.0978 22.4278 17.144 22.4593 17.1916C22.5562 17.3381 22.6526 17.4849 22.749 17.6317C22.8463 17.7794 22.9437 17.9269 23.0412 18.0744C23.1292 18.2076 23.2168 18.3409 23.3045 18.4743C23.4197 18.659 23.4197 18.659 23.5156 18.7499C23.6379 18.7572 23.7606 18.7591 23.8831 18.7588C24.0004 18.7588 24.0004 18.7588 24.12 18.7588C24.2051 18.7583 24.2901 18.7579 24.3778 18.7575C24.4643 18.7575 24.5509 18.7573 24.6402 18.7572C24.918 18.7568 25.1958 18.7558 25.4736 18.7548C25.6614 18.7544 25.8493 18.7541 26.0371 18.7537C26.4987 18.7529 26.9603 18.7515 27.4219 18.7499C27.3904 18.3309 27.2672 18.1577 26.9694 17.8674C26.9305 17.829 26.8916 17.7905 26.8516 17.7509C26.7673 17.6679 26.6826 17.5853 26.5974 17.5031C26.4622 17.3725 26.3282 17.2407 26.1944 17.1085C25.9096 16.8277 25.6233 16.5485 25.3369 16.2695C25.0062 15.9469 24.676 15.6235 24.3472 15.299C24.216 15.1702 24.0839 15.0423 23.9518 14.9145C23.4113 14.3862 22.8942 13.8502 22.7246 13.0907C22.679 12.9361 22.679 12.9361 22.5781 12.8124C22.276 12.6681 21.9706 12.6224 21.6406 12.5781C21.5554 12.5661 21.4702 12.5543 21.3824 12.542C19.369 12.3328 17.4257 13.0227 15.9375 14.3749ZM17.2656 18.2811C17.1825 18.3787 17.1026 18.4791 17.0242 18.5805C16.9758 18.6429 16.9274 18.7053 16.8776 18.7696C16.8268 18.8356 16.776 18.9016 16.7236 18.9697C16.6731 19.0347 16.6226 19.0999 16.5706 19.1669C16.3786 19.4151 16.1897 19.6607 16.0156 19.9218C15.7971 19.9556 15.7971 19.9556 15.5218 19.9618C15.4236 19.9646 15.3254 19.9673 15.2243 19.9701C15.1213 19.9719 15.0182 19.9737 14.9121 19.9755C14.8074 19.9781 14.7028 19.9808 14.5981 19.9836C14.3414 19.9901 14.0848 19.9955 13.8281 19.9999C13.947 21.5583 14.5773 22.9094 15.625 24.0624C15.6895 24.1365 15.6895 24.1365 15.7553 24.212C16.925 25.4769 18.724 26.1754 20.4202 26.2523C22.3784 26.2355 24.1132 25.5474 25.517 24.175C26.5606 23.0822 27.4219 21.5471 27.4219 19.9999C27.3647 20.0012 27.3076 20.0025 27.2486 20.0038C26.7074 20.0149 26.1662 20.0212 25.6248 20.022C25.3464 20.0225 25.0684 20.025 24.7901 20.0318C22.9847 20.0741 22.9847 20.0741 22.5624 19.8171C22.2903 19.5567 22.1461 19.2655 22.0312 18.9061C21.9038 19.0973 21.8172 19.2596 21.7282 19.4683C21.686 19.5669 21.686 19.5669 21.6429 19.6674C21.6129 19.7379 21.583 19.8085 21.5521 19.8812C21.5211 19.9537 21.4901 20.0262 21.4582 20.1009C21.3593 20.3325 21.2607 20.5641 21.1621 20.7958C21.0951 20.9529 21.028 21.1099 20.961 21.2669C20.7966 21.6517 20.6327 22.0367 20.4688 22.4218C19.9531 22.4218 19.4375 22.4218 18.9062 22.4218C18.8262 22.208 18.7461 21.9942 18.6636 21.7739C18.5848 21.5634 18.5059 21.353 18.427 21.1425C18.3728 20.9978 18.3187 20.8532 18.2645 20.7085C17.961 19.8981 17.6567 19.0881 17.3438 18.2811C17.318 18.2811 17.2922 18.2811 17.2656 18.2811Z" fill="black"/>
<path d="M11.7188 25.3906C12.0176 25.527 12.1621 25.6857 12.3634 25.9473C12.4186 26.0184 12.4737 26.0895 12.5306 26.1628C12.5928 26.2446 12.5928 26.2446 12.6563 26.3282C12.5502 26.5659 12.431 26.7284 12.2456 26.9104C12.1967 26.9588 12.1478 27.0071 12.0976 27.0569C12.0467 27.1064 11.9958 27.156 11.9434 27.207C11.892 27.2578 11.8405 27.3086 11.7875 27.3609C11.6608 27.4858 11.5337 27.6102 11.4063 27.7344C11.5242 27.9829 11.6469 28.1484 11.8458 28.3399C11.8951 28.3878 11.9444 28.4358 11.9953 28.4852C12.0518 28.5389 12.0518 28.5389 12.1094 28.5938C12.3472 28.4876 12.5097 28.3684 12.6917 28.183C12.74 28.1342 12.7884 28.0853 12.8382 28.035C12.9125 27.9587 12.9125 27.9587 12.9884 27.8809C13.0391 27.8294 13.0898 27.778 13.1422 27.725C13.267 27.5982 13.3915 27.4712 13.5157 27.3438C13.788 27.4738 14.004 27.6311 14.2384 27.8223C14.308 27.8789 14.3777 27.9355 14.4495 27.9938C14.5287 28.0588 14.5287 28.0588 14.6094 28.125C14.5006 28.3713 14.3731 28.5361 14.1816 28.7244C14.1292 28.7762 14.0768 28.8281 14.0229 28.8816C13.941 28.9615 13.941 28.9615 13.8575 29.043C13.8023 29.0975 13.7471 29.152 13.6902 29.2081C13.5543 29.3422 13.418 29.476 13.2813 29.6094C13.4068 29.8758 13.5474 30.0483 13.7598 30.254C13.8447 30.3367 13.8447 30.3367 13.9314 30.4212C13.9746 30.4627 14.018 30.5042 14.0626 30.5469C13.9476 30.8122 13.7996 30.9862 13.5962 31.1904C13.5314 31.2559 13.4666 31.3214 13.3998 31.3889C13.2929 31.4956 13.2929 31.4956 13.1838 31.6046C13.108 31.6808 13.0324 31.7571 12.9566 31.8334C12.751 32.0404 12.5449 32.2468 12.3386 32.4532C12.2096 32.5824 12.0806 32.7116 11.9518 32.841C11.5014 33.2928 11.0507 33.7441 10.5996 34.1951C10.1802 34.6144 9.76169 35.0345 9.34362 35.455C8.98389 35.8168 8.62355 36.178 8.26275 36.5387C8.04762 36.7538 7.83275 36.9691 7.61849 37.185C7.41655 37.3885 7.21382 37.5912 7.01055 37.7934C6.90155 37.9021 6.79329 38.0117 6.68509 38.1212C5.87248 38.9258 5.06443 39.3923 3.91607 39.4092C2.96543 39.403 2.19432 39.1016 1.48931 38.4549C0.748107 37.6738 0.586551 36.7831 0.603386 35.7471C0.650781 34.5983 1.40562 33.7932 2.18385 33.024C2.26171 32.9462 2.33952 32.8684 2.41728 32.7905C2.62673 32.581 2.83688 32.3722 3.04718 32.1635C3.2675 31.9447 3.48715 31.7252 3.70687 31.5057C4.12225 31.091 4.53822 30.677 4.95441 30.2632C5.42854 29.7917 5.902 29.3195 6.3754 28.8472C7.34849 27.8766 8.32242 26.9068 9.29695 25.9375C9.56335 26.063 9.73582 26.2036 9.94149 26.416C9.99662 26.4726 10.0518 26.5292 10.1087 26.5876C10.171 26.6525 10.171 26.6525 10.2344 26.7188C10.4807 26.6099 10.6455 26.4825 10.8338 26.2909C10.8857 26.2386 10.9376 26.1862 10.991 26.1322C11.0442 26.0776 11.0975 26.0231 11.1524 25.9668C11.2069 25.9116 11.2614 25.8564 11.3175 25.7996C11.4516 25.6636 11.5854 25.5273 11.7188 25.3906ZM9.11075 28.0616C9.00475 28.1703 9.00475 28.1703 8.89655 28.2813C8.82542 28.3538 8.75435 28.4263 8.68109 28.501C8.62649 28.5574 8.57189 28.6138 8.51569 28.6719C8.62082 28.9062 8.73722 29.0688 8.91915 29.2494C8.96922 29.2994 9.01922 29.3494 9.07082 29.401C9.12469 29.454 9.17855 29.5071 9.23409 29.5618C9.31695 29.6444 9.31695 29.6444 9.40155 29.7286C9.57789 29.9041 9.75482 30.079 9.93169 30.254C10.0515 30.3729 10.1712 30.492 10.2909 30.611C10.5842 30.9026 10.8779 31.1936 11.172 31.4844C11.4384 31.359 11.6108 31.2184 11.8165 31.0059C11.8716 30.9493 11.9268 30.8927 11.9837 30.8344C12.0252 30.7911 12.0667 30.7478 12.1094 30.7032C12.0046 30.47 11.8886 30.3064 11.7084 30.1257C11.6589 30.0756 11.6094 30.0256 11.5584 29.9741C11.505 29.921 11.4516 29.868 11.3966 29.8132C11.3416 29.7582 11.2868 29.7032 11.2302 29.6464C11.1143 29.5304 10.9982 29.4146 10.8819 29.299C10.7033 29.1212 10.5256 28.9427 10.348 28.7641C10.2353 28.6515 10.1226 28.539 10.0098 28.4266C9.92975 28.346 9.92975 28.346 9.84802 28.2638C9.79849 28.2148 9.74895 28.1657 9.69795 28.1152C9.65435 28.0717 9.61075 28.0282 9.56582 27.9834C9.35855 27.8127 9.30275 27.8853 9.11075 28.0616ZM7.07875 30.086C7.03155 30.1332 6.98442 30.1804 6.93582 30.2291C6.88602 30.2784 6.83622 30.3276 6.78489 30.3784C6.61941 30.5424 6.45454 30.707 6.28973 30.8716C6.17511 30.9858 6.06047 31.0998 5.94583 31.214C5.70505 31.4538 5.46459 31.694 5.22432 31.9343C4.91706 32.2416 4.60874 32.5478 4.30013 32.8537C4.06273 33.0894 3.82605 33.3257 3.58956 33.5623C3.47625 33.6754 3.36268 33.7883 3.24886 33.9009C3.08915 34.0591 2.93047 34.2182 2.77201 34.3776C2.72516 34.4236 2.67831 34.4696 2.63005 34.5169C2.25509 34.8975 1.99149 35.29 1.91167 35.8252C1.91779 36.4976 1.95723 36.9434 2.42925 37.4366C2.89931 37.8753 3.23785 38.069 3.89165 38.0762C3.98239 38.0784 4.07313 38.0806 4.16662 38.0829C4.78598 38.0051 5.19827 37.6602 5.62246 37.2256C5.67284 37.1752 5.72323 37.1249 5.77513 37.073C5.93989 36.9081 6.10351 36.742 6.26715 36.576C6.38179 36.4608 6.4965 36.3456 6.61128 36.2305C6.91202 35.9286 7.21175 35.6258 7.51135 35.3227C7.81769 35.0132 8.12489 34.7045 8.43209 34.3958C9.03375 33.7908 9.63442 33.1848 10.2344 32.5782C10.1296 32.345 10.0136 32.1814 9.83342 32.0007C9.78389 31.9506 9.73435 31.9006 9.68335 31.8491C9.62995 31.796 9.57655 31.743 9.52155 31.6882C9.46662 31.6332 9.41175 31.5782 9.35515 31.5214C9.23929 31.4054 9.12315 31.2896 9.00689 31.174C8.82829 30.9962 8.65062 30.8177 8.47295 30.6391C8.36029 30.5265 8.24755 30.414 8.13482 30.3016C8.05475 30.221 8.05475 30.221 7.97302 30.1388C7.92349 30.0898 7.87395 30.0407 7.82295 29.9902C7.77935 29.9467 7.73575 29.9032 7.69082 29.8584C7.42202 29.637 7.28102 29.8868 7.07875 30.086Z" fill="black"/>
<path d="M30.625 0.625C31.0375 0.625 31.45 0.625 31.875 0.625C31.9008 1.47578 31.9265 2.32656 31.9531 3.20313C32.3483 3.2992 32.7435 3.39527 33.1507 3.49426C33.4027 3.55609 33.6548 3.61799 33.9069 3.68011C34.3058 3.77845 34.7048 3.87656 35.1041 3.9732C35.4265 4.05123 35.7487 4.13038 36.0707 4.21027C36.1927 4.24037 36.315 4.27009 36.4373 4.29938C38.4985 4.79405 38.4985 4.79405 39.0625 5.70313C39.3289 6.19747 39.4199 6.60179 39.4105 7.1602C39.4105 7.23193 39.4106 7.30367 39.4106 7.3776C39.4104 7.6122 39.408 7.84673 39.4055 8.08133C39.4049 8.245 39.4045 8.40867 39.4042 8.57227C39.403 9.00113 39.3999 9.43 39.3965 9.8588C39.3933 10.2971 39.3918 10.7355 39.3903 11.1739C39.3869 12.0326 39.3814 12.8913 39.375 13.75C38.4985 13.7758 37.6219 13.8015 36.7187 13.8281C35.8731 16.2721 35.2123 18.6541 35.1141 21.254C35.1094 21.3737 35.1094 21.3737 35.1045 21.4959C35.0683 22.4553 35.0511 23.4151 35.0342 24.375C35.0229 24.9937 35.0116 25.6125 35 26.25C32.9375 26.25 30.875 26.25 28.75 26.25C28.8531 26.0953 28.9563 25.9406 29.0625 25.7813C29.1009 25.7106 29.1393 25.64 29.1789 25.5673C29.484 25.0409 29.484 25.0409 29.8178 24.932C30.0715 24.9095 30.3141 24.912 30.5685 24.9237C30.7053 24.9253 30.7053 24.9253 30.8447 24.9271C31.1346 24.9314 31.4241 24.9412 31.7139 24.9512C31.9109 24.9551 32.1079 24.9587 32.3049 24.9619C32.7867 24.9705 33.2683 24.9835 33.75 25C33.7495 24.9456 33.7489 24.8912 33.7484 24.8352C33.7437 24.3127 33.7401 23.7902 33.7379 23.2677C33.7367 22.9993 33.735 22.7309 33.7323 22.4625C33.7158 20.6987 33.8099 18.9805 34.1992 17.2559C34.2288 17.1212 34.2288 17.1212 34.259 16.9839C34.5079 15.8837 34.8292 14.8028 35.2344 13.75C34.9508 13.75 34.6672 13.75 34.375 13.75C34.375 13.3375 34.375 12.925 34.375 12.5C35.6125 12.5 36.85 12.5 38.125 12.5C38.1179 11.5591 38.1179 11.5591 38.1087 10.6181C38.1045 10.2339 38.1005 9.84973 38.0979 9.46553C38.0959 9.15553 38.0927 8.84553 38.0888 8.53553C38.0875 8.41767 38.0866 8.29987 38.0861 8.18207C38.1127 7.257 38.1127 7.257 37.8125 6.40625C37.4892 6.09221 37.2442 5.95671 36.7999 5.84715C36.7477 5.83388 36.6954 5.82061 36.6415 5.80693C36.4699 5.76369 36.2979 5.72227 36.1258 5.68085C36.0049 5.65074 35.884 5.62052 35.7631 5.59018C35.4452 5.51071 35.1269 5.43275 34.8085 5.35513C34.4884 5.27683 34.1685 5.19721 33.8487 5.11765C33.4871 5.0277 33.1253 4.93785 32.7633 4.84917C32.7074 4.83543 32.6515 4.82169 32.5939 4.80754C32.4443 4.77085 32.2948 4.73427 32.1452 4.69771C31.6373 4.56889 31.1313 4.43191 30.625 4.29687C30.625 3.08515 30.625 1.87344 30.625 0.625Z" fill="black"/>
<path d="M25.625 0.625C26.0375 0.625 26.45 0.625 26.875 0.625C26.875 1.83672 26.875 3.04844 26.875 4.29687C26.4882 4.39476 26.1014 4.49265 25.7028 4.59351C25.4554 4.65616 25.208 4.71882 24.9605 4.78149C24.5692 4.88062 24.1778 4.97973 23.7864 5.07873C23.4703 5.15871 23.1542 5.23875 22.8382 5.31885C22.7186 5.34914 22.5989 5.37941 22.4793 5.40965C22.1487 5.49324 21.8183 5.5774 21.488 5.66228C21.3244 5.70408 21.1606 5.74509 20.9968 5.78611C20.8913 5.81306 20.7858 5.84005 20.6803 5.86708C20.541 5.90227 20.541 5.90227 20.3988 5.93817C20.0693 6.04339 19.7934 6.18475 19.6094 6.48437C19.4457 6.9896 19.421 7.47953 19.4043 8.0078C19.4013 8.087 19.3983 8.16613 19.3952 8.24767C19.3878 8.44113 19.3814 8.6346 19.375 8.82813C18.9625 8.90547 18.55 8.9828 18.125 9.06253C18.1142 8.7012 18.1048 8.34047 18.0993 7.97913C18.097 7.85667 18.0938 7.73427 18.0896 7.61187C18.0606 6.7224 18.124 5.99283 18.7498 5.29473C19.415 4.64544 20.3482 4.48417 21.221 4.27124C21.3462 4.24021 21.4712 4.20913 21.5964 4.17799C21.9233 4.09677 22.2505 4.01632 22.5777 3.93603C22.9715 3.83924 23.365 3.74147 23.7586 3.64387C24.3546 3.49621 24.9508 3.34979 25.5469 3.20313C25.5727 2.35235 25.5984 1.50156 25.625 0.625Z" fill="black"/>
</g>
</svg>
