<svg width="46" height="46" viewBox="0 0 46 46" fill="none" xmlns="http://www.w3.org/2000/svg">
<path d="M24.3551 4.39491L41.6051 21.6449C42.8126 22.8524 41.9577 24.9167 40.25 24.9167H38.3333V36.4167C38.3333 37.9417 37.7275 39.4042 36.6492 40.4825C35.5708 41.5609 34.1083 42.1667 32.5833 42.1667H30.6666V28.75C30.6667 27.2833 30.1063 25.8721 29.1002 24.805C28.094 23.7379 26.7181 23.0956 25.254 23.0096L24.9166 23H21.0833C19.5583 23 18.0958 23.6058 17.0174 24.6841C15.9391 25.7625 15.3333 27.225 15.3333 28.75V42.1667H13.4166C11.8916 42.1667 10.4291 41.5609 9.35078 40.4825C8.27244 39.4042 7.66664 37.9417 7.66664 36.4167V24.9167H5.74997C4.04414 24.9167 3.18739 22.8524 4.39489 21.6449L21.6449 4.39491C22.0043 4.03559 22.4917 3.83374 23 3.83374C23.5082 3.83374 23.9956 4.03559 24.3551 4.39491ZM24.9166 26.8333C25.425 26.8333 25.9125 27.0353 26.2719 27.3947C26.6314 27.7542 26.8333 28.2417 26.8333 28.75V42.1667H19.1666V28.75C19.1667 28.2805 19.3391 27.8274 19.651 27.4766C19.963 27.1258 20.3928 26.9017 20.8591 26.8467L21.0833 26.8333H24.9166Z" fill="black"/>
</svg>
