<svg width="46" height="46" viewBox="0 0 46 46" fill="none" xmlns="http://www.w3.org/2000/svg">
<path d="M26.8334 26.8334H24.9167V24.9167C24.9167 24.4084 24.7148 23.9209 24.3553 23.5614C23.9959 23.202 23.5084 23 23 23C22.4917 23 22.0042 23.202 21.6447 23.5614C21.2853 23.9209 21.0834 24.4084 21.0834 24.9167V26.8334H19.1667C18.6584 26.8334 18.1708 27.0353 17.8114 27.3948C17.452 27.7542 17.25 28.2417 17.25 28.75C17.25 29.2584 17.452 29.7459 17.8114 30.1053C18.1708 30.4648 18.6584 30.6667 19.1667 30.6667H21.0834V32.5834C21.0834 33.0917 21.2853 33.5792 21.6447 33.9387C22.0042 34.2981 22.4917 34.5 23 34.5C23.5084 34.5 23.9959 34.2981 24.3553 33.9387C24.7148 33.5792 24.9167 33.0917 24.9167 32.5834V30.6667H26.8334C27.3417 30.6667 27.8292 30.4648 28.1886 30.1053C28.5481 29.7459 28.75 29.2584 28.75 28.75C28.75 28.2417 28.5481 27.7542 28.1886 27.3948C27.8292 27.0353 27.3417 26.8334 26.8334 26.8334ZM38.3334 17.135C38.3134 16.959 38.2748 16.7855 38.2184 16.6175V16.445C38.1262 16.248 38.0033 16.0668 37.8542 15.9084L26.3542 4.40837C26.1957 4.25929 26.0146 4.13636 25.8175 4.04421H25.645C25.4503 3.93254 25.2353 3.86087 25.0125 3.83337H13.4167C11.8917 3.83337 10.4292 4.43918 9.35082 5.51751C8.27249 6.59584 7.66669 8.05838 7.66669 9.58337V36.4167C7.66669 37.9417 8.27249 39.4042 9.35082 40.4826C10.4292 41.5609 11.8917 42.1667 13.4167 42.1667H32.5834C34.1083 42.1667 35.5709 41.5609 36.6492 40.4826C37.7276 39.4042 38.3334 37.9417 38.3334 36.4167V17.25V17.135ZM26.8334 10.3692L31.7975 15.3334H28.75C28.2417 15.3334 27.7542 15.1314 27.3947 14.772C27.0353 14.4125 26.8334 13.925 26.8334 13.4167V10.3692ZM34.5 36.4167C34.5 36.925 34.2981 37.4126 33.9386 37.772C33.5792 38.1314 33.0917 38.3334 32.5834 38.3334H13.4167C12.9084 38.3334 12.4208 38.1314 12.0614 37.772C11.702 37.4126 11.5 36.925 11.5 36.4167V9.58337C11.5 9.07504 11.702 8.58753 12.0614 8.22809C12.4208 7.86864 12.9084 7.66671 13.4167 7.66671H23V13.4167C23 14.9417 23.6058 16.4042 24.6842 17.4826C25.7625 18.5609 27.225 19.1667 28.75 19.1667H34.5V36.4167Z" fill="black"/>
</svg>
