<svg width="46" height="46" viewBox="0 0 46 46" fill="none" xmlns="http://www.w3.org/2000/svg">
<path d="M34.5 37.375V40.25H37.375V37.375H34.5Z" fill="black"/>
<path d="M25.875 31.625V34.5H28.75V31.625H25.875Z" fill="black"/>
<path d="M25.875 43.125H31.625V40.25H28.75V37.375H25.875V43.125Z" fill="black"/>
<path d="M37.3749 31.625V37.375H40.2499V31.625H37.3749Z" fill="black"/>
<path d="M40.25 37.375H43.125V43.125H37.375V40.25H40.25V37.375Z" fill="black"/>
<path d="M37.375 28.75V25.875H43.125V31.625H40.25V28.75H37.375Z" fill="black"/>
<path d="M34.5 28.75H31.625V34.5H28.75V37.375H34.5V28.75Z" fill="black"/>
<path d="M25.875 25.875V28.75H31.625V25.875H25.875Z" fill="black"/>
<path d="M14.375 31.625H8.625V37.375H14.375V31.625Z" fill="black"/>
<path d="M20.125 43.125H2.875V25.875H20.125V43.125ZM5.75 40.25H17.25V28.75H5.75V40.25Z" fill="black"/>
<path d="M37.375 8.625H31.625V14.375H37.375V8.625Z" fill="black"/>
<path d="M43.125 20.125H25.875V2.875H43.125V20.125ZM28.75 17.25H40.25V5.75H28.75V17.25Z" fill="black"/>
<path d="M14.375 8.625H8.625V14.375H14.375V8.625Z" fill="black"/>
<path d="M20.125 20.125H2.875V2.875H20.125V20.125ZM5.75 17.25H17.25V5.75H5.75V17.25Z" fill="black"/>
</svg>
