<svg width="18" height="24" viewBox="0 0 18 24" fill="none" xmlns="http://www.w3.org/2000/svg">
<path d="M9 15C7.95833 15 7.07292 14.6354 6.34375 13.9062C5.61458 13.1771 5.25 12.2917 5.25 11.25V3.75C5.25 2.70833 5.61458 1.82292 6.34375 1.09375C7.07292 0.364583 7.95833 0 9 0C10.0417 0 10.9271 0.364583 11.6562 1.09375C12.3854 1.82292 12.75 2.70833 12.75 3.75V11.25C12.75 12.2917 12.3854 13.1771 11.6562 13.9062C10.9271 14.6354 10.0417 15 9 15ZM7.75 23.75V19.9062C5.58333 19.6146 3.79167 18.6458 2.375 17C0.958333 15.3542 0.25 13.4375 0.25 11.25H2.75C2.75 12.9792 3.35958 14.4533 4.57875 15.6725C5.79792 16.8917 7.27167 17.5008 9 17.5C10.7283 17.4992 12.2025 16.8896 13.4225 15.6712C14.6425 14.4529 15.2517 12.9792 15.25 11.25H17.75C17.75 13.4375 17.0417 15.3542 15.625 17C14.2083 18.6458 12.4167 19.6146 10.25 19.9062V23.75H7.75Z" fill="#7030A0"/>
</svg>
