<svg width="46" height="60" viewBox="0 0 46 60" fill="none" xmlns="http://www.w3.org/2000/svg">
<path d="M10.6922 50.7273H11.7433L14.2149 56.7642H14.3002L16.7718 50.7273H17.8229V58H16.999V52.4744H16.928L14.6553 58H13.8598L11.5871 52.4744H11.5161V58H10.6922V50.7273ZM21.762 58.1136C21.2364 58.1136 20.7831 57.9976 20.4019 57.7656C20.0231 57.5312 19.7307 57.2045 19.5248 56.7855C19.3212 56.3641 19.2194 55.8741 19.2194 55.3153C19.2194 54.7566 19.3212 54.2642 19.5248 53.8381C19.7307 53.4096 20.0172 53.0758 20.3841 52.8366C20.7535 52.5952 21.1843 52.4744 21.6768 52.4744C21.9608 52.4744 22.2414 52.5218 22.5184 52.6165C22.7954 52.7112 23.0475 52.8651 23.2748 53.0781C23.502 53.2888 23.6832 53.5682 23.8181 53.9162C23.953 54.2642 24.0205 54.6927 24.0205 55.2017V55.5568H19.816V54.8324H23.1682C23.1682 54.5246 23.1067 54.25 22.9836 54.0085C22.8628 53.767 22.69 53.5765 22.4651 53.4368C22.2426 53.2971 21.9798 53.2273 21.6768 53.2273C21.343 53.2273 21.0541 53.3101 20.8103 53.4759C20.5688 53.6392 20.383 53.8523 20.2528 54.1151C20.1225 54.3778 20.0574 54.6596 20.0574 54.9602V55.4432C20.0574 55.8551 20.1285 56.2043 20.2705 56.4908C20.4149 56.7749 20.615 56.9915 20.8706 57.1406C21.1263 57.2874 21.4234 57.3608 21.762 57.3608C21.9822 57.3608 22.181 57.33 22.3586 57.2685C22.5385 57.2045 22.6936 57.1098 22.8238 56.9844C22.954 56.8565 23.0546 56.6979 23.1256 56.5085L23.9353 56.7358C23.8501 57.0104 23.7068 57.2519 23.5056 57.4602C23.3044 57.6662 23.0558 57.8272 22.7599 57.9432C22.4639 58.0568 22.1313 58.1136 21.762 58.1136ZM26.1334 54.7188V58H25.2954V52.5455H26.105V53.3977H26.176C26.3039 53.1207 26.498 52.8982 26.7584 52.7301C27.0189 52.5597 27.355 52.4744 27.767 52.4744C28.1363 52.4744 28.4594 52.5502 28.7364 52.7017C29.0134 52.8509 29.2288 53.0781 29.3827 53.3835C29.5366 53.6866 29.6135 54.0701 29.6135 54.5341V58H28.7755V54.5909C28.7755 54.1624 28.6642 53.8286 28.4417 53.5895C28.2191 53.348 27.9137 53.2273 27.5255 53.2273C27.258 53.2273 27.0189 53.2853 26.8081 53.4013C26.5998 53.5173 26.4353 53.6866 26.3145 53.9091C26.1938 54.1316 26.1334 54.4015 26.1334 54.7188ZM34.5825 55.7699V52.5455H35.4205V58H34.5825V57.0767H34.5257C34.3978 57.3537 34.199 57.5893 33.9291 57.7834C33.6592 57.9751 33.3183 58.071 32.9063 58.071C32.5654 58.071 32.2624 57.9964 31.9972 57.8473C31.7321 57.6958 31.5238 57.4685 31.3722 57.1655C31.2207 56.8601 31.145 56.4754 31.145 56.0114V52.5455H31.983V55.9545C31.983 56.3523 32.0943 56.6695 32.3169 56.9062C32.5418 57.143 32.8282 57.2614 33.1762 57.2614C33.3846 57.2614 33.5964 57.2081 33.8119 57.1016C34.0297 56.995 34.212 56.8317 34.3588 56.6115C34.5079 56.3913 34.5825 56.1108 34.5825 55.7699Z" fill="black"/>
<path d="M9.58331 42.5H36.4166M9.58331 30H36.4166M9.58331 17.5H36.4166" stroke="black" stroke-width="5" stroke-linecap="round" stroke-linejoin="round"/>
</svg>
