<svg width="60" height="60" viewBox="0 0 60 60" fill="none" xmlns="http://www.w3.org/2000/svg">
<path d="M42.4512 36.0703L32.0273 25.6523C31.8281 25.4531 31.8281 25.125 32.0273 24.9199L40.4414 16.5059C43.4004 13.5527 48.2344 13.5527 51.1934 16.5059C54.3691 19.6816 54.3691 24.8789 51.1934 28.0547L43.1777 36.0703C42.9785 36.2695 42.6504 36.2695 42.4512 36.0703Z" fill="#7030A0"/>
<path d="M13.957 13.0137C16.1367 13.0137 18.1816 13.8574 19.7109 15.3867L28.4414 24.123L16.9336 35.625L8.20312 26.8887C6.67383 25.3594 5.83008 23.3145 5.83008 21.1348C5.83008 18.9551 6.67383 16.9102 8.20312 15.3809C9.73242 13.8516 11.7773 13.0137 13.957 13.0137ZM13.957 12.1348C11.6484 12.1348 9.33398 13.0137 7.58203 14.7656C4.07812 18.2695 4.07812 24.0059 7.58203 27.5156L16.9336 36.8672L29.6836 24.1172L20.332 14.7656C18.5801 13.0078 16.2715 12.1348 13.957 12.1348Z" fill="#1A1918"/>
<path d="M45.9668 13.0137C48.1465 13.0137 50.1914 13.8574 51.7207 15.3867C53.25 16.916 54.0937 18.9609 54.0937 21.1406C54.0937 23.3203 53.25 25.3652 51.7207 26.8945L42.9844 35.625L31.4766 24.1172L40.2129 15.3867C41.7422 13.8574 43.7871 13.0137 45.9668 13.0137ZM45.9668 12.1348C43.6582 12.1348 41.3437 13.0137 39.5918 14.7598L30.2344 24.1172L42.9844 36.8672L52.3418 27.5156C55.8516 24.0117 55.8516 18.2695 52.3418 14.7656C50.584 13.0137 48.2754 12.1348 45.9668 12.1348ZM33.4336 36.5449C33.8086 36.5449 34.1133 36.8496 34.1133 37.2246C34.1133 37.5996 33.8086 37.9043 33.4336 37.9043C33.252 37.9043 33.082 37.834 32.9531 37.7051C32.8242 37.5762 32.7539 37.4062 32.7539 37.2246C32.7539 36.8496 33.0586 36.5449 33.4336 36.5449ZM33.4395 35.666C32.5781 35.666 31.8809 36.3633 31.8809 37.2246C31.8809 38.0859 32.5781 38.7832 33.4395 38.7832C34.3008 38.7832 34.998 38.0859 34.998 37.2246C34.998 36.3633 34.3008 35.666 33.4395 35.666Z" fill="#F5C046"/>
<path d="M26.6484 36.4805C27.0234 36.4805 27.3281 36.7852 27.3281 37.1602C27.3281 37.5352 27.0234 37.8398 26.6484 37.8398C26.4668 37.8398 26.2969 37.7695 26.168 37.6406C26.0391 37.5117 25.9688 37.3418 25.9688 37.1602C25.9688 36.9785 26.0391 36.8086 26.168 36.6797C26.2969 36.5508 26.4668 36.4805 26.6484 36.4805ZM26.6484 35.6016C25.7871 35.6016 25.0898 36.2988 25.0898 37.1602C25.0898 38.0215 25.7871 38.7188 26.6484 38.7188C27.5098 38.7188 28.207 38.0215 28.207 37.1602C28.2129 36.2988 27.5098 35.6016 26.6484 35.6016ZM33.3574 44.3965C33.5391 44.3965 33.709 44.4668 33.8379 44.5957C33.9668 44.7246 34.0371 44.8945 34.0371 45.0762C34.0371 45.2578 33.9668 45.4277 33.8379 45.5566C33.709 45.6855 33.5391 45.7559 33.3574 45.7559C33.1758 45.7559 33.0059 45.6855 32.877 45.5566C32.748 45.4277 32.6777 45.2578 32.6777 45.0762C32.6777 44.8945 32.748 44.7246 32.877 44.5957C33.0059 44.4727 33.1758 44.3965 33.3574 44.3965ZM33.3574 43.5176C32.4961 43.5176 31.7988 44.2148 31.7988 45.0762C31.7988 45.9375 32.4961 46.6348 33.3574 46.6348C34.2188 46.6348 34.916 45.9375 34.916 45.0762C34.9219 44.2207 34.2188 43.5176 33.3574 43.5176ZM26.5723 44.332C26.7539 44.332 26.9238 44.4023 27.0527 44.5313C27.1816 44.6602 27.252 44.8301 27.252 45.0117C27.252 45.1934 27.1816 45.3633 27.0527 45.4922C26.9238 45.6211 26.7539 45.6914 26.5723 45.6914C26.1973 45.6914 25.8926 45.3867 25.8926 45.0117C25.8926 44.6367 26.1973 44.332 26.5723 44.332ZM26.5723 43.4531C25.7109 43.4531 25.0137 44.1504 25.0137 45.0117C25.0137 45.873 25.7109 46.5703 26.5723 46.5703C27.4336 46.5703 28.1309 45.873 28.1309 45.0117C28.1309 44.1504 27.4336 43.4531 26.5723 43.4531ZM36.4512 40.9453C36.6328 40.9453 36.8027 41.0156 36.9316 41.1445C37.0605 41.2734 37.1309 41.4434 37.1309 41.625C37.1309 41.8066 37.0605 41.9766 36.9316 42.1055C36.8027 42.2344 36.6328 42.3047 36.4512 42.3047C36.2695 42.3047 36.0996 42.2344 35.9707 42.1055C35.8418 41.9766 35.7715 41.8066 35.7715 41.625C35.7715 41.4434 35.8418 41.2734 35.9707 41.1445C36.0996 41.0156 36.2695 40.9453 36.4512 40.9453ZM36.4512 40.0664C35.5898 40.0664 34.8926 40.7637 34.8926 41.625C34.8926 42.4863 35.5898 43.1836 36.4512 43.1836C37.3125 43.1836 38.0098 42.4863 38.0098 41.625C38.0156 40.7637 37.3125 40.0664 36.4512 40.0664ZM23.2559 40.6582C23.6309 40.6582 23.9355 40.9629 23.9355 41.3379C23.9355 41.7129 23.6309 42.0176 23.2559 42.0176C22.8809 42.0176 22.5762 41.7129 22.5762 41.3379C22.5762 41.1563 22.6465 40.9863 22.7754 40.8574C22.9043 40.7344 23.0742 40.6582 23.2559 40.6582ZM23.2559 39.7793C22.3945 39.7793 21.6973 40.4766 21.6973 41.3379C21.6973 42.1992 22.3945 42.8965 23.2559 42.8965C24.1172 42.8965 24.8145 42.1992 24.8145 41.3379C24.8145 40.4824 24.1172 39.7793 23.2559 39.7793ZM29.8945 40.4238C30.2695 40.4238 30.5742 40.7285 30.5742 41.1035C30.5742 41.4785 30.2695 41.7832 29.8945 41.7832C29.5195 41.7832 29.2148 41.4785 29.2148 41.1035C29.2148 40.9219 29.2852 40.752 29.4141 40.623C29.543 40.4941 29.7129 40.4238 29.8945 40.4238ZM29.8945 39.5449C29.0332 39.5449 28.3359 40.2422 28.3359 41.1035C28.3359 41.9648 29.0332 42.6621 29.8945 42.6621C30.7559 42.6621 31.4531 41.9648 31.4531 41.1035C31.4531 40.2422 30.7559 39.5449 29.8945 39.5449ZM29.9707 32.6836C30.3457 32.6836 30.6504 32.9883 30.6504 33.3633C30.6504 33.7383 30.3457 34.043 29.9707 34.043C29.7891 34.043 29.6191 33.9727 29.4902 33.8437C29.3613 33.7148 29.291 33.5449 29.291 33.3633C29.291 33.1816 29.3613 33.0117 29.4902 32.8828C29.6191 32.7539 29.7891 32.6836 29.9707 32.6836ZM29.9707 31.8047C29.1094 31.8047 28.4121 32.502 28.4121 33.3633C28.4121 34.2246 29.1094 34.9219 29.9707 34.9219C30.832 34.9219 31.5293 34.2246 31.5293 33.3633C31.5352 32.502 30.832 31.8047 29.9707 31.8047ZM29.8184 48.2637C30.1934 48.2637 30.498 48.5684 30.498 48.9434C30.498 49.125 30.4277 49.2949 30.2988 49.4238C30.1699 49.5527 30 49.6231 29.8184 49.6231C29.4434 49.6231 29.1387 49.3184 29.1387 48.9434C29.1387 48.7617 29.209 48.5918 29.3379 48.4629C29.4668 48.334 29.6367 48.2637 29.8184 48.2637ZM29.8184 47.3848C28.957 47.3848 28.2598 48.082 28.2598 48.9434C28.2598 49.8047 28.957 50.502 29.8184 50.502C30.6797 50.502 31.377 49.8047 31.377 48.9434C31.377 48.082 30.6797 47.3848 29.8184 47.3848Z" fill="#1A1918"/>
</svg>
