<svg width="80" height="80" viewBox="0 0 80 80" fill="none" xmlns="http://www.w3.org/2000/svg">
<path d="M53.0625 65.5781H48.8047C47.9453 65.5781 47.2422 64.875 47.2422 64.0156V57.9453H54.625V64.0156C54.625 64.875 53.9219 65.5781 53.0625 65.5781Z" fill="#D22A89"/>
<path d="M40.8437 20.8125H38.3828C37.9219 20.8125 37.5391 20.4375 37.5391 19.9688V18.3828C37.5391 18.2656 37.4453 18.1641 37.3203 18.1641H35.7344C35.2734 18.1641 34.8906 17.7891 34.8906 17.3203V14.8594C34.8906 14.3984 35.2656 14.0156 35.7344 14.0156H35.7656V14.6406H35.7344C35.6172 14.6406 35.5156 14.7422 35.5156 14.8594V17.3203C35.5156 17.4375 35.6172 17.5391 35.7344 17.5391H37.3203C37.7813 17.5391 38.1641 17.9141 38.1641 18.3828V19.9688C38.1641 20.0859 38.2656 20.1875 38.3828 20.1875H40.8437C40.9609 20.1875 41.0625 20.0859 41.0625 19.9688V18.3828C41.0625 17.9219 41.4375 17.5391 41.9063 17.5391H43.4922C43.6094 17.5391 43.7109 17.4375 43.7109 17.3203V14.8594C43.7109 14.7422 43.6172 14.6406 43.4922 14.6406H41.9063C41.4453 14.6406 41.0625 14.2656 41.0625 13.7969V12.2109C41.0625 12.0938 40.9687 11.9922 40.8437 11.9922H38.3828C38.2656 11.9922 38.1641 12.0938 38.1641 12.2109V13.7969C38.1641 14.2578 37.7891 14.6406 37.3203 14.6406H36.9219V14.0156H37.3203C37.4375 14.0156 37.5391 13.9219 37.5391 13.7969V12.2109C37.5391 11.75 37.9141 11.3672 38.3828 11.3672H40.8437C41.3047 11.3672 41.6875 11.7422 41.6875 12.2109V13.7969C41.6875 13.9141 41.7813 14.0156 41.9063 14.0156H43.4922C43.9531 14.0156 44.3359 14.3906 44.3359 14.8594V17.3203C44.3359 17.7812 43.9609 18.1641 43.4922 18.1641H41.9063C41.7891 18.1641 41.6875 18.2578 41.6875 18.3828V19.9688C41.6875 20.4375 41.3047 20.8125 40.8437 20.8125Z" fill="#7030A0"/>
<path d="M39.8672 45.4375C43.625 45.4375 47.0625 46.1953 50.0938 47.6953C52.9531 49.1094 55.4375 51.1797 57.4766 53.8438C59.4531 56.4297 60.9844 59.5391 62.0234 63.0859C62.9531 66.2656 63.4688 69.7188 63.5625 73.3672H16.1719C16.2656 69.7188 16.7812 66.2656 17.7109 63.0859C18.75 59.5469 20.2812 56.4375 22.2578 53.8438C24.2969 51.1797 26.7812 49.1094 29.6406 47.6953C32.6641 46.1953 36.1016 45.4375 39.8672 45.4375ZM39.8672 44.2656C23.6094 44.2656 14.9844 57.8125 14.9844 74.5313H64.7422C64.7422 57.8125 56.1172 44.2656 39.8672 44.2656Z" fill="#1A1918"/>
<path d="M40.1094 64.3125C39.1563 64.3125 38.3906 63.5391 38.3906 62.5938C38.3906 61.6406 39.1641 60.875 40.1094 60.875C41.0625 60.875 41.8281 61.6484 41.8281 62.5938C41.8359 63.5391 41.0625 64.3125 40.1094 64.3125ZM40.1094 61.4922C39.5078 61.4922 39.0156 61.9844 39.0156 62.5859C39.0156 63.1875 39.5078 63.6797 40.1094 63.6797C40.7109 63.6797 41.2031 63.1875 41.2031 62.5859C41.2109 61.9844 40.7188 61.4922 40.1094 61.4922ZM40.1094 71.1953C39.1563 71.1953 38.3906 70.4219 38.3906 69.4766C38.3906 68.5312 39.1641 67.7578 40.1094 67.7578C41.0625 67.7578 41.8281 68.5312 41.8281 69.4766C41.8281 70.4219 41.0625 71.1953 40.1094 71.1953ZM40.1094 68.375C39.5078 68.375 39.0156 68.8672 39.0156 69.4688C39.0156 70.0703 39.5078 70.5625 40.1094 70.5625C40.7109 70.5625 41.2031 70.0703 41.2031 69.4688C41.2031 68.8672 40.7188 68.375 40.1094 68.375ZM40.3516 42.5703H38.875C35.5312 42.5703 32.375 41.2578 29.9922 38.875C27.6094 36.4922 26.2969 33.3359 26.2969 29.9922V24.8125H52.3359C52.6641 24.8125 52.9297 25.0781 52.9297 25.4063V29.9922C52.9297 33.3359 51.6172 36.4922 49.2344 38.875C46.8516 41.2578 43.6953 42.5703 40.3516 42.5703ZM27.4688 25.9844V29.9922C27.4688 33.0234 28.6562 35.8828 30.8203 38.0469C32.9844 40.2109 35.8438 41.3984 38.875 41.3984H40.3516C43.3828 41.3984 46.2422 40.2109 48.4062 38.0469C50.5703 35.8828 51.7578 33.0234 51.7578 29.9922V25.9844H27.4688Z" fill="#1A1918"/>
<path d="M52.9297 25.9844H26.2969V10.5234C26.2969 9.48437 26.9141 8.53125 27.8594 8.10156C30.2266 7.03125 34.9219 5.23438 39.8672 5.23438C44.7969 5.23438 49.2266 7.01562 51.4297 8.08594C52.3438 8.52344 52.9297 9.46875 52.9297 10.4844V25.9844ZM27.4688 24.8125H51.7578V10.4844C51.7578 9.91406 51.4297 9.39062 50.9141 9.14844C48.8047 8.125 44.5547 6.41406 39.8594 6.41406C35.1328 6.41406 30.6172 8.14063 28.3437 9.17188C27.8125 9.41406 27.4688 9.94531 27.4688 10.5312V24.8125ZM40.1094 54.1094C36.2813 54.1094 33.1641 50.9922 33.1641 47.1641V45.5859H33.7891V47.1641C33.7891 50.6484 36.625 53.4844 40.1094 53.4844C43.5938 53.4844 46.4297 50.6484 46.4297 47.1641V45.8359H47.0547V47.1641C47.0625 50.9922 43.9453 54.1094 40.1094 54.1094ZM53.0625 65.6406H47.8906C46.8594 65.6406 46.0156 64.7969 46.0156 63.7656V56.7188H54.9375V63.7656C54.9375 64.7969 54.0938 65.6406 53.0625 65.6406ZM46.6406 57.3438V63.7656C46.6406 64.4531 47.2031 65.0156 47.8906 65.0156H53.0625C53.75 65.0156 54.3125 64.4531 54.3125 63.7656V57.3438H46.6406Z" fill="#1A1918"/>
<path d="M50.7891 57.1172H50.1641V55.5859C50.1641 55 49.6875 54.5312 49.1094 54.5312C48.5312 54.5312 48.0547 55.0078 48.0547 55.5859H47.4297C47.4297 54.6562 48.1875 53.9062 49.1094 53.9062C50.0312 53.9062 50.7891 54.6641 50.7891 55.5859V57.1172Z" fill="#1A1918"/>
<path d="M43.9297 59.6641C41.6562 59.6641 39.8047 57.8125 39.8047 55.5391V53.7969H40.4297V55.5391C40.4297 57.4688 42 59.0391 43.9297 59.0391C45.8594 59.0391 47.4297 57.4688 47.4297 55.5391H48.0547C48.0547 57.8125 46.2031 59.6641 43.9297 59.6641Z" fill="#1A1918"/>
</svg>
