<svg width="60" height="60" viewBox="0 0 60 60" fill="none" xmlns="http://www.w3.org/2000/svg">
<path d="M39.4336 21.4922C39.1523 21.6973 38.8184 21.75 38.4551 21.75C38.0918 21.75 37.8164 21.8262 37.541 21.6211C36.7969 22.0078 36.0293 22.8164 36.0293 23.7539H40.4941C40.4941 22.8164 40.1777 21.8789 39.4336 21.4922Z" fill="#D22A89"/>
<path d="M37.2422 20.0449C37.2422 20.3091 37.3471 20.5625 37.5339 20.7493C37.7207 20.9361 37.9741 21.041 38.2383 21.041C38.5025 21.041 38.7558 20.9361 38.9426 20.7493C39.1294 20.5625 39.2344 20.3091 39.2344 20.0449C39.2344 19.7807 39.1294 19.5274 38.9426 19.3406C38.7558 19.1538 38.5025 19.0488 38.2383 19.0488C37.9741 19.0488 37.7207 19.1538 37.5339 19.3406C37.3471 19.5274 37.2422 19.7807 37.2422 20.0449Z" fill="#D22A89"/>
<path d="M43.5234 52.3359H16.4766C15.9609 52.3359 15.5391 51.9141 15.5391 51.3984V13.998C15.5391 13.4824 15.9609 13.0605 16.4766 13.0605H43.5293C44.0449 13.0605 44.4668 13.4824 44.4668 13.998V51.3984C44.4609 51.9141 44.0449 52.3359 43.5234 52.3359ZM16.4766 13.5293C16.2187 13.5293 16.0078 13.7402 16.0078 13.998V51.3984C16.0078 51.6563 16.2187 51.8672 16.4766 51.8672H43.5293C43.7871 51.8672 43.998 51.6563 43.998 51.3984V13.998C43.998 13.7402 43.7871 13.5293 43.5293 13.5293H16.4766Z" fill="#7030A0"/>
<path d="M44.2266 56.1621H15.7734C13.3887 56.1621 11.4551 54.2227 11.4551 51.8437V13.5527C11.4551 11.168 13.3945 9.23438 15.7734 9.23438H23.8535C23.9941 7.78125 24.6445 6.43359 25.6992 5.4082C26.8594 4.27734 28.3945 3.65625 30.0176 3.65625C31.6406 3.65625 33.1699 4.27734 34.3359 5.4082C35.3906 6.43359 36.041 7.78125 36.1816 9.23438H44.2324C46.6172 9.23438 48.5508 11.1738 48.5508 13.5527V51.8437C48.5508 54.2227 46.6113 56.1621 44.2266 56.1621ZM15.7734 10.1133C13.875 10.1133 12.334 11.6543 12.334 13.5527V51.8437C12.334 53.7422 13.875 55.2832 15.7734 55.2832H44.2324C46.1309 55.2832 47.6719 53.7422 47.6719 51.8437V13.5527C47.6719 11.6543 46.1309 10.1133 44.2324 10.1133H35.3438L35.332 9.68555C35.291 8.30273 34.7168 7.00195 33.7207 6.03516C32.7246 5.06836 31.4062 4.5293 30.0176 4.5293C28.6289 4.5293 27.3105 5.06836 26.3086 6.03516C25.3125 7.00195 24.7441 8.29688 24.6973 9.68555L24.6855 10.1133H15.7734Z" fill="#1A1918"/>
<path d="M30.1465 8.98242C29.4082 8.98242 28.8105 8.38477 28.8105 7.64648C28.8105 6.9082 29.4082 6.31055 30.1465 6.31055C30.8848 6.31055 31.4824 6.9082 31.4824 7.64648C31.4824 8.38477 30.8789 8.98242 30.1465 8.98242ZM30.1465 6.78516C29.6719 6.78516 29.2793 7.17188 29.2793 7.65234C29.2793 8.13281 29.666 8.51953 30.1465 8.51953C30.627 8.51953 31.0137 8.13281 31.0137 7.65234C31.0137 7.17188 30.6211 6.78516 30.1465 6.78516Z" fill="#7030A0"/>
<path d="M37.3359 15H22.6348C22.1191 15 21.6973 14.5781 21.6973 14.0625V10.6172C21.6973 10.1016 22.1191 9.67969 22.6348 9.67969H37.3359C37.8516 9.67969 38.2734 10.1016 38.2734 10.6172V14.0625C38.2734 14.5781 37.8516 15 37.3359 15ZM22.6348 10.1484C22.377 10.1484 22.166 10.3594 22.166 10.6172V14.0625C22.166 14.3203 22.377 14.5312 22.6348 14.5312H37.3359C37.5938 14.5312 37.8047 14.3203 37.8047 14.0625V10.6172C37.8047 10.3594 37.5938 10.1484 37.3359 10.1484H22.6348ZM38.0273 21.2402C37.2188 21.2402 36.5566 20.5781 36.5566 19.7695C36.5566 18.9609 37.2188 18.2988 38.0273 18.2988C38.8359 18.2988 39.498 18.9609 39.498 19.7695C39.498 20.5781 38.8418 21.2402 38.0273 21.2402ZM38.0273 18.7676C37.4766 18.7676 37.0254 19.2188 37.0254 19.7695C37.0254 20.3203 37.4766 20.7715 38.0273 20.7715C38.5781 20.7715 39.0293 20.3203 39.0293 19.7695C39.0293 19.2188 38.584 18.7676 38.0273 18.7676Z" fill="#1A1918"/>
<path d="M40.8516 23.9883H35.209V23.7539C35.209 22.6699 35.8184 21.6973 36.791 21.2168L36.9141 21.1582L37.0254 21.2344C37.3242 21.4395 37.6699 21.5449 38.0273 21.5449C38.3848 21.5449 38.7363 21.4395 39.0293 21.2344L39.1406 21.1582L39.2637 21.2168C40.2422 21.6973 40.8457 22.6641 40.8457 23.7539V23.9883H40.8516ZM35.6895 23.5195H40.3711C40.2949 22.752 39.8555 22.0781 39.1758 21.6973C38.8301 21.9023 38.4375 22.0137 38.0273 22.0137C37.623 22.0137 37.2246 21.9023 36.8789 21.6973C36.2051 22.0781 35.7656 22.752 35.6895 23.5195ZM20.7656 18.7969H26.8477V19.2656H20.7656V18.7969ZM20.7656 23.1973H31.2422V23.666H20.7656V23.1973ZM20.7656 27.5977H24.3223V28.0664H20.7656V27.5977ZM20.7656 31.9922H40.623V32.4609H20.7656V31.9922ZM20.7656 36.3926H36.8086V36.8613H20.7656V36.3926ZM20.7656 40.793H26.0039V41.2617H20.7656V40.793ZM36.2871 47.584H40.623V48.0527H36.2871V47.584Z" fill="#1A1918"/>
</svg>
