<svg width="80" height="80" viewBox="0 0 80 80" fill="none" xmlns="http://www.w3.org/2000/svg">
<path d="M24.1931 51.4018L26.4028 49.1921L31.0431 53.8325L28.8334 56.0421L24.1931 51.4018Z" fill="#D22A89"/>
<path d="M24.3059 47.2027L36.2934 35.2152L46.237 45.1587L34.2495 57.1462L24.3059 47.2027Z" fill="#D22A89"/>
<path d="M28.5412 51.8771L28.983 51.4351L31.8446 54.2967L31.4027 54.7386L28.5412 51.8771ZM24.1992 47.5334L24.6412 47.0914L27.5027 49.953L27.0608 50.3949L24.1992 47.5334Z" fill="#1A1918"/>
<path d="M34.9592 39.6789L35.4012 39.2371L40.489 44.3248L40.047 44.7667L34.9592 39.6789Z" fill="#1A1918"/>
<path d="M31.8586 42.8363L32.3006 42.3944L37.3883 47.4822L36.9465 47.9241L31.8586 42.8363Z" fill="#1A1918"/>
<path d="M28.7282 45.9648L29.17 45.5228L34.2579 50.6106L33.8159 51.0526L28.7282 45.9648ZM24.0381 51.7206L24.48 51.2787L28.7723 55.571L28.3303 56.013L24.0381 51.7206Z" fill="#1A1918"/>
<path d="M65.2266 25.1094L64.2734 24.1562L62.1406 22.0234L65.3438 18.8203L68.875 22.3516L69.7031 21.5234L66.1719 17.9922L61.9531 13.7734L58.5781 10.3984L57.75 11.2266L61.125 14.6016L57.9219 17.8047L49.1953 9.07031L48.3672 9.89844L52.9844 14.5156C52.8984 14.5703 52.8125 14.6406 52.7422 14.7109L22.7422 44.7109C22.4609 44.9922 22.3047 45.3672 22.3047 45.7578C22.3047 46.1484 22.4609 46.5312 22.7422 46.8047L25.3516 49.4141L24.125 50.6406C23.8672 50.8984 23.7109 51.2422 23.6953 51.6016L19.3359 58.7578L19.8984 59.3203L14.7891 64.4297L15.6172 65.2578L20.7266 60.1484L21.2422 60.6641L28.4297 56.2344C28.7578 56.1953 29.0625 56.0469 29.2969 55.8125L30.5234 54.5859L33.1328 57.1953C33.4141 57.4766 33.7891 57.6328 34.1797 57.6328C34.5781 57.6328 34.9531 57.4766 35.2266 57.1953L65.2266 27.1953C65.3047 27.1172 65.3672 27.0391 65.4219 26.9531L70.2031 31.7344L71.0312 30.9062L65.2266 25.1094ZM61.9531 15.4297L64.5156 17.9922L61.3125 21.1953L58.75 18.6328L61.9531 15.4297ZM64.3984 26.3828L34.3984 56.3828C34.3203 56.4609 34.2266 56.4766 34.1797 56.4766C34.1328 56.4766 34.0391 56.4609 33.9609 56.3828L30.5234 52.9453L28.4687 55C28.3906 55.0781 28.2969 55.0938 28.25 55.0938H28.0859L21.5312 59.1328L20.8828 58.4844L24.8828 51.9219L24.8672 51.7344C24.8594 51.6406 24.8906 51.5469 24.9531 51.4844L27.0078 49.4297L23.5703 45.9922C23.4922 45.9141 23.4766 45.8203 23.4766 45.7734C23.4766 45.7266 23.4922 45.6328 23.5703 45.5547L53.5703 15.5547C53.6875 15.4375 53.8906 15.4375 54.0156 15.5547L64.4063 25.9453C64.5156 26.0547 64.5156 26.2578 64.3984 26.3828Z" fill="#1A1918"/>
<path d="M42.8516 40.6641L39.3359 37.1484L58.0859 18.3984L61.6016 21.9141L42.8516 40.6641ZM40.2187 37.1484L42.8516 39.7812L60.7188 21.9141L58.0859 19.2813L40.2187 37.1484Z" fill="#1A1918"/>
<path d="M45.6797 45.1016L34.8594 34.2734L36.0781 33.0547L46.9063 43.8828L45.6797 45.1016ZM35.7422 34.2734L45.6797 44.2188L46.0078 43.8906L36.0703 33.9453L35.7422 34.2734Z" fill="#7030A0"/>
</svg>
