<svg width="80" height="80" viewBox="0 0 80 80" fill="none" xmlns="http://www.w3.org/2000/svg">
<g clip-path="url(#clip0_5807_1800)">
<path d="M57.1484 67.9766C54.4453 67.9766 51.7422 66.9453 49.6797 64.8906L39.0391 54.2422L53.9766 39.3047L64.6172 49.9453C66.6016 51.9297 67.6953 54.5859 67.6953 57.4141C67.6953 60.2422 66.6016 62.8984 64.6172 64.8828C62.5547 66.9453 59.8516 67.9766 57.1484 67.9766ZM40.6953 54.2422L50.5078 64.0547C54.1719 67.7188 60.125 67.7188 63.7891 64.0547C65.5547 62.2891 66.5312 59.9297 66.5312 57.4141C66.5312 54.8984 65.5625 52.5391 63.7891 50.7734L53.9766 40.9609L40.6953 54.2422ZM25.7578 40.9609L15.1094 30.3203C13.125 28.3281 12.0312 25.6797 12.0312 22.8516C12.0312 20.0234 13.125 17.3672 15.1094 15.3828C17.0937 13.3984 19.75 12.3047 22.5781 12.3047C25.4062 12.3047 28.0625 13.3984 30.0469 15.3828L40.6875 26.0234L25.7578 40.9609ZM22.5781 13.4609C20.1719 13.4609 17.7656 14.375 15.9375 16.2031C12.2734 19.8672 12.2734 25.8203 15.9375 29.4844L25.75 39.2969L39.0312 26.0156L29.2188 16.2109C27.3906 14.3828 24.9844 13.4609 22.5781 13.4609Z" fill="#1A1918"/>
<path d="M27.575 40.5743L40.2088 27.9404L52.0141 39.7457L39.3802 52.3797L27.575 40.5743Z" fill="#D22A89"/>
<path d="M22.5938 68.2031C19.9297 68.2031 17.4219 67.1719 15.5469 65.2969L14.6953 64.4453C10.8125 60.5625 10.8125 54.2422 14.6953 50.3594L50.1094 14.9453C51.9844 13.0703 54.4844 12.0391 57.1562 12.0391C59.8281 12.0391 62.3281 13.0703 64.2031 14.9453L65.0547 15.7969C66.9297 17.6719 67.9609 20.1719 67.9609 22.8437C67.9609 25.5156 66.9297 28.0156 65.0547 29.8906L29.6406 65.2969C27.7656 67.1719 25.2656 68.2031 22.5938 68.2031ZM57.1641 13.2109C54.8125 13.2109 52.6016 14.1172 50.9531 15.7734L15.5312 51.1875C12.1016 54.6172 12.1016 60.1875 15.5312 63.6172L16.3828 64.4688C18.0391 66.125 20.2422 67.0312 22.5938 67.0312C24.9453 67.0312 27.1562 66.1172 28.8047 64.4688L64.2188 29.0547C65.875 27.3984 66.7812 25.1953 66.7812 22.8437C66.7812 20.4922 65.8672 18.2812 64.2188 16.6328L63.3672 15.7812C61.7266 14.1172 59.5156 13.2109 57.1641 13.2109Z" fill="#7030A0"/>
<path d="M39.2237 33.4325C39.3534 33.4536 39.4859 33.4489 39.6137 33.4187C39.7415 33.3885 39.8621 33.3335 39.9686 33.2567C40.0752 33.1799 40.1655 33.0829 40.2346 32.9712C40.3036 32.8595 40.35 32.7353 40.371 32.6056C40.3921 32.476 40.3874 32.3435 40.3572 32.2157C40.327 32.0879 40.272 31.9673 40.1952 31.8607C40.1184 31.7542 40.0214 31.6638 39.9097 31.5948C39.798 31.5258 39.6738 31.4794 39.5442 31.4584C39.4145 31.4373 39.282 31.442 39.1542 31.4722C39.0264 31.5023 38.9058 31.5574 38.7993 31.6342C38.6927 31.711 38.6024 31.808 38.5333 31.9197C38.4643 32.0314 38.4179 32.1556 38.3969 32.2852C38.3758 32.4149 38.3805 32.5474 38.4107 32.6752C38.4409 32.803 38.4959 32.9236 38.5727 33.0301C38.6495 33.1367 38.7465 33.227 38.8582 33.2961C38.9699 33.3651 39.0941 33.4115 39.2237 33.4325Z" fill="white"/>
<path d="M39.3828 33.7578C39.0469 33.7578 38.7109 33.6328 38.4531 33.375C37.9453 32.8672 37.9453 32.0312 38.4531 31.5234C38.7031 31.2734 39.0312 31.1406 39.3828 31.1406C39.7344 31.1406 40.0625 31.2734 40.3125 31.5234C40.8203 32.0312 40.8203 32.8672 40.3125 33.375C40.0469 33.625 39.7187 33.7578 39.3828 33.7578ZM39.3828 31.7656C39.2031 31.7656 39.0312 31.8359 38.8984 31.9688C38.6328 32.2344 38.6328 32.6719 38.8984 32.9375C39.1641 33.2031 39.6016 33.2031 39.8672 32.9375C40.1328 32.6719 40.1328 32.2344 39.8672 31.9688C39.7344 31.8359 39.5625 31.7656 39.3828 31.7656Z" fill="#1A1918"/>
<path d="M42.4687 36.5313C42.4687 36.7965 42.5741 37.0508 42.7616 37.2384C42.9492 37.4259 43.2035 37.5313 43.4688 37.5313C43.734 37.5313 43.9883 37.4259 44.1759 37.2384C44.3634 37.0508 44.4687 36.7965 44.4687 36.5313C44.4687 36.266 44.3634 36.0117 44.1759 35.8241C43.9883 35.6366 43.734 35.5312 43.4688 35.5312C43.2035 35.5312 42.9492 35.6366 42.7616 35.8241C42.5741 36.0117 42.4687 36.266 42.4687 36.5313Z" fill="white"/>
<path d="M43.4688 37.8438C43.1328 37.8438 42.7969 37.7188 42.5391 37.4609C42.0312 36.9531 42.0312 36.1172 42.5391 35.6094C43.0469 35.1016 43.8828 35.1016 44.3906 35.6094C44.8984 36.1172 44.8984 36.9531 44.3906 37.4609C44.1328 37.7109 43.7969 37.8438 43.4688 37.8438ZM43.4688 35.8516C43.2969 35.8516 43.1172 35.9219 42.9844 36.0547C42.7188 36.3203 42.7188 36.7578 42.9844 37.0234C43.25 37.2891 43.6875 37.2891 43.9531 37.0234C44.2187 36.7578 44.2187 36.3203 43.9531 36.0547C43.8125 35.9141 43.6406 35.8516 43.4688 35.8516Z" fill="#1A1918"/>
<path d="M46.5469 40.6172C46.5469 40.8824 46.6522 41.1368 46.8398 41.3243C47.0273 41.5118 47.2817 41.6172 47.5469 41.6172C47.8121 41.6172 48.0664 41.5118 48.254 41.3243C48.4415 41.1368 48.5469 40.8824 48.5469 40.6172C48.5469 40.352 48.4415 40.0976 48.254 39.9101C48.0664 39.7225 47.8121 39.6172 47.5469 39.6172C47.2817 39.6172 47.0273 39.7225 46.8398 39.9101C46.6522 40.0976 46.5469 40.352 46.5469 40.6172Z" fill="white"/>
<path d="M47.5469 41.9297C47.2109 41.9297 46.875 41.8047 46.6172 41.5469C46.3672 41.2969 46.2344 40.9688 46.2344 40.6172C46.2344 40.2656 46.3672 39.9375 46.6172 39.6875C46.8672 39.4375 47.1953 39.3047 47.5469 39.3047C47.8984 39.3047 48.2266 39.4375 48.4766 39.6875C48.7266 39.9375 48.8594 40.2656 48.8594 40.6172C48.8594 40.9688 48.7266 41.2969 48.4766 41.5469C48.2188 41.7969 47.8828 41.9297 47.5469 41.9297ZM47.5469 39.9297C47.3672 39.9297 47.1953 40 47.0625 40.1328C46.9297 40.2656 46.8594 40.4375 46.8594 40.6172C46.8594 40.7969 46.9297 40.9687 47.0625 41.1016C47.3281 41.3672 47.7656 41.3672 48.0312 41.1016C48.1641 40.9687 48.2344 40.7969 48.2344 40.6172C48.2344 40.4375 48.1641 40.2656 48.0312 40.1328C47.9062 40.0078 47.7344 39.9297 47.5469 39.9297Z" fill="#1A1918"/>
<path d="M34.7969 36.0313C34.7969 36.2965 34.9022 36.5508 35.0898 36.7384C35.2773 36.9259 35.5317 37.0313 35.7969 37.0313C36.0621 37.0313 36.3164 36.9259 36.504 36.7384C36.6915 36.5508 36.7969 36.2965 36.7969 36.0313C36.7969 35.766 36.6915 35.5117 36.504 35.3241C36.3164 35.1366 36.0621 35.0312 35.7969 35.0312C35.5317 35.0312 35.2773 35.1366 35.0898 35.3241C34.9022 35.5117 34.7969 35.766 34.7969 36.0313Z" fill="white"/>
<path d="M35.7969 37.3438C35.4609 37.3438 35.125 37.2188 34.8672 36.9609C34.6172 36.7109 34.4844 36.3828 34.4844 36.0313C34.4844 35.6797 34.6172 35.3516 34.8672 35.1016C35.375 34.5938 36.2109 34.5938 36.7188 35.1016C36.9688 35.3516 37.1016 35.6797 37.1016 36.0313C37.1016 36.3828 36.9688 36.7109 36.7188 36.9609C36.4609 37.2109 36.1328 37.3438 35.7969 37.3438ZM35.7969 35.3516C35.625 35.3516 35.4453 35.4219 35.3125 35.5547C35.1797 35.6875 35.1094 35.8594 35.1094 36.0391C35.1094 36.2188 35.1797 36.3906 35.3125 36.5234C35.5781 36.7891 36.0156 36.7891 36.2812 36.5234C36.4141 36.3906 36.4844 36.2188 36.4844 36.0391C36.4844 35.8594 36.4141 35.6875 36.2812 35.5547C36.1406 35.4141 35.9688 35.3516 35.7969 35.3516Z" fill="#1A1918"/>
<path d="M38.8828 40.1172C38.8828 40.3824 38.9882 40.6368 39.1757 40.8243C39.3632 41.0118 39.6176 41.1172 39.8828 41.1172C40.148 41.1172 40.4024 41.0118 40.5899 40.8243C40.7775 40.6368 40.8828 40.3824 40.8828 40.1172C40.8828 39.852 40.7775 39.5976 40.5899 39.4101C40.4024 39.2225 40.148 39.1172 39.8828 39.1172C39.6176 39.1172 39.3632 39.2225 39.1757 39.4101C38.9882 39.5976 38.8828 39.852 38.8828 40.1172Z" fill="white"/>
<path d="M39.8828 41.4297C39.5312 41.4297 39.2031 41.2969 38.9531 41.0469C38.7031 40.7969 38.5703 40.4687 38.5703 40.1172C38.5703 39.7656 38.7031 39.4375 38.9531 39.1875C39.4609 38.6797 40.2969 38.6797 40.8047 39.1875C41.0547 39.4375 41.1875 39.7656 41.1875 40.1172C41.1875 40.4687 41.0547 40.7969 40.8047 41.0469C40.5547 41.2891 40.2266 41.4297 39.8828 41.4297ZM39.8828 39.4375C39.7109 39.4375 39.5312 39.5078 39.3984 39.6406C39.2656 39.7734 39.1953 39.9453 39.1953 40.125C39.1953 40.3047 39.2656 40.4766 39.3984 40.6094C39.5312 40.7422 39.7031 40.8125 39.8828 40.8125C40.0625 40.8125 40.2344 40.7422 40.3672 40.6094C40.5 40.4766 40.5703 40.3047 40.5703 40.125C40.5703 39.9453 40.5 39.7734 40.3672 39.6406C40.2266 39.5 40.0547 39.4375 39.8828 39.4375Z" fill="#1A1918"/>
<path d="M42.9609 44.2031C42.9609 44.4683 43.0663 44.7227 43.2538 44.9102C43.4414 45.0978 43.6957 45.2031 43.9609 45.2031C44.2262 45.2031 44.4805 45.0978 44.668 44.9102C44.8556 44.7227 44.9609 44.4683 44.9609 44.2031C44.9609 43.9379 44.8556 43.6836 44.668 43.496C44.4805 43.3085 44.2262 43.2031 43.9609 43.2031C43.6957 43.2031 43.4414 43.3085 43.2538 43.496C43.0663 43.6836 42.9609 43.9379 42.9609 44.2031Z" fill="white"/>
<path d="M43.9609 45.5156C43.625 45.5156 43.2891 45.3906 43.0312 45.1328C42.5234 44.625 42.5234 43.7891 43.0312 43.2812C43.5391 42.7734 44.375 42.7734 44.8828 43.2812C45.3906 43.7891 45.3906 44.625 44.8828 45.1328C44.6328 45.3828 44.2969 45.5156 43.9609 45.5156ZM43.9609 43.5156C43.7891 43.5156 43.6094 43.5859 43.4766 43.7187C43.2109 43.9844 43.2109 44.4219 43.4766 44.6875C43.7422 44.9531 44.1797 44.9531 44.4453 44.6875C44.7109 44.4219 44.7109 43.9844 44.4453 43.7187C44.3125 43.5859 44.1406 43.5156 43.9609 43.5156Z" fill="#1A1918"/>
<path d="M31.2109 39.6172C31.2109 39.8824 31.3163 40.1368 31.5038 40.3243C31.6914 40.5118 31.9457 40.6172 32.2109 40.6172C32.4762 40.6172 32.7305 40.5118 32.918 40.3243C33.1056 40.1368 33.2109 39.8824 33.2109 39.6172C33.2109 39.352 33.1056 39.0976 32.918 38.9101C32.7305 38.7225 32.4762 38.6172 32.2109 38.6172C31.9457 38.6172 31.6914 38.7225 31.5038 38.9101C31.3163 39.0976 31.2109 39.352 31.2109 39.6172Z" fill="white"/>
<path d="M32.2109 40.9297C31.8594 40.9297 31.5312 40.7969 31.2812 40.5469C31.0312 40.2969 30.8984 39.9688 30.8984 39.6172C30.8984 39.2656 31.0312 38.9375 31.2812 38.6875C31.5312 38.4375 31.8594 38.3047 32.2109 38.3047C32.5625 38.3047 32.8906 38.4375 33.1406 38.6875C33.6484 39.1953 33.6484 40.0313 33.1406 40.5391C32.8828 40.7891 32.5547 40.9297 32.2109 40.9297ZM32.2109 38.9375C32.0312 38.9375 31.8594 39.0078 31.7266 39.1406C31.5938 39.2734 31.5234 39.4453 31.5234 39.625C31.5234 39.8047 31.5938 39.9766 31.7266 40.1094C31.8594 40.2422 32.0312 40.3125 32.2109 40.3125C32.3906 40.3125 32.5625 40.2422 32.6953 40.1094C32.9609 39.8438 32.9609 39.4063 32.6953 39.1406C32.5625 39.0078 32.3906 38.9375 32.2109 38.9375Z" fill="#1A1918"/>
<path d="M35.2969 43.7031C35.2969 43.9683 35.4022 44.2227 35.5898 44.4102C35.7773 44.5978 36.0317 44.7031 36.2969 44.7031C36.5621 44.7031 36.8164 44.5978 37.004 44.4102C37.1915 44.2227 37.2969 43.9683 37.2969 43.7031C37.2969 43.4379 37.1915 43.1836 37.004 42.996C36.8164 42.8085 36.5621 42.7031 36.2969 42.7031C36.0317 42.7031 35.7773 42.8085 35.5898 42.996C35.4022 43.1836 35.2969 43.4379 35.2969 43.7031Z" fill="white"/>
<path d="M36.2969 45.0156C35.9453 45.0156 35.6172 44.8828 35.3672 44.6328C35.1172 44.3828 34.9844 44.0547 34.9844 43.7031C34.9844 43.3516 35.1172 43.0234 35.3672 42.7734C35.6172 42.5234 35.9453 42.3906 36.2969 42.3906C36.6484 42.3906 36.9766 42.5234 37.2266 42.7734C37.4766 43.0234 37.6094 43.3516 37.6094 43.7031C37.6094 44.0547 37.4766 44.3828 37.2266 44.6328C36.9688 44.875 36.6406 45.0156 36.2969 45.0156ZM36.2969 43.0156C36.1172 43.0156 35.9453 43.0859 35.8125 43.2188C35.6797 43.3516 35.6094 43.5234 35.6094 43.7031C35.6094 43.8828 35.6797 44.0547 35.8125 44.1875C35.9453 44.3203 36.1172 44.3906 36.2969 44.3906C36.4766 44.3906 36.6484 44.3203 36.7812 44.1875C36.9141 44.0547 36.9844 43.8828 36.9844 43.7031C36.9844 43.5234 36.9141 43.3516 36.7812 43.2188C36.6484 43.0938 36.4766 43.0156 36.2969 43.0156Z" fill="#1A1918"/>
<path d="M39.375 47.7891C39.375 48.0543 39.4804 48.3086 39.6679 48.4962C39.8554 48.6837 40.1098 48.7891 40.375 48.7891C40.6402 48.7891 40.8946 48.6837 41.0821 48.4962C41.2696 48.3086 41.375 48.0543 41.375 47.7891C41.375 47.5238 41.2696 47.2695 41.0821 47.082C40.8946 46.8944 40.6402 46.7891 40.375 46.7891C40.1098 46.7891 39.8554 46.8944 39.6679 47.082C39.4804 47.2695 39.375 47.5238 39.375 47.7891Z" fill="white"/>
<path d="M40.375 49.1016C40.0391 49.1016 39.7031 48.9766 39.4453 48.7187C38.9375 48.2109 38.9375 47.375 39.4453 46.8672C39.6953 46.6172 40.0234 46.4844 40.375 46.4844C40.7266 46.4844 41.0547 46.6172 41.3047 46.8672C41.8125 47.375 41.8125 48.2109 41.3047 48.7187C41.0469 48.9687 40.7109 49.1016 40.375 49.1016ZM40.375 47.1016C40.1953 47.1016 40.0234 47.1719 39.8906 47.3047C39.625 47.5703 39.625 48.0078 39.8906 48.2734C40.1563 48.5391 40.5938 48.5391 40.8594 48.2734C41.125 48.0078 41.125 47.5703 40.8594 47.3047C40.7344 47.1797 40.5625 47.1016 40.375 47.1016Z" fill="#1A1918"/>
<path d="M26.4852 41.8393L26.927 41.3974L38.8152 53.2855L38.3732 53.7275L26.4852 41.8393ZM40.8673 27.2063L41.3093 26.7644L53.1974 38.6525L52.7555 39.0945L40.8673 27.2063Z" fill="#1A1918"/>
</g>
<defs>
<clipPath id="clip0_5807_1800">
<rect width="80" height="80" fill="white"/>
</clipPath>
</defs>
</svg>
