<svg width="80" height="80" viewBox="0 0 80 80" fill="none" xmlns="http://www.w3.org/2000/svg">
<path d="M43.5564 39.1309L44.5458 36.8096L48.9729 38.6965L47.9834 41.0179L43.5564 39.1309Z" fill="#D22A89"/>
<path d="M49.0702 38.8125L44.8749 37.0234C44.3983 36.8203 44.1796 36.2656 44.3827 35.7969L52.6327 16.4375C52.8358 15.9609 53.3905 15.7422 53.8593 15.9453L58.9608 18.1172C59.4374 18.3203 59.6561 18.875 59.453 19.3438L51.5936 37.7969C51.1796 38.7656 50.0468 39.2266 49.0702 38.8125Z" fill="#D22A89"/>
<path d="M55.6406 54.0469H36.8828C36.4531 54.0469 36.1016 53.6953 36.1016 53.2656V51.9844C36.1016 51.5547 36.4531 51.2031 36.8828 51.2031H55.6406C56.0703 51.2031 56.4219 51.5547 56.4219 51.9844V53.2656C56.4219 53.7031 56.0703 54.0469 55.6406 54.0469ZM36.8828 51.8359C36.7969 51.8359 36.7266 51.9062 36.7266 51.9922V53.2734C36.7266 53.3594 36.7969 53.4297 36.8828 53.4297H55.6406C55.7266 53.4297 55.7969 53.3594 55.7969 53.2734V51.9922C55.7969 51.9062 55.7266 51.8359 55.6406 51.8359H36.8828Z" fill="#7030A0"/>
<path d="M44.0525 32.7316L44.2994 32.1575L52.2152 35.5622L51.9683 36.1363L44.0525 32.7316Z" fill="white"/>
<path d="M44.0083 36.7158L44.2534 36.1409L49.2553 38.2729L49.0103 38.8479L44.0083 36.7158Z" fill="#1A1918"/>
<path d="M53.4219 73.2344H27.9844C27.2109 73.2344 26.5781 72.6016 26.5781 71.8281V71.5156L29.875 69.3047C30.1016 69.0781 30.4062 68.9453 30.7266 68.9453H37.3203V61.0938H36.6094C31.6328 61.0859 26.9453 59.1328 23.4062 55.5859C19.8672 52.0391 17.9141 47.3516 17.9141 42.375C17.9141 37.3984 19.8672 32.6953 23.4141 29.1563C26.9609 25.6172 31.6562 23.6562 36.6328 23.6562H46.9844L50.4922 15.2188C51.1484 13.6641 52.9375 12.9375 54.4844 13.5938L58.2656 15.1875C59.8125 15.8437 60.5469 17.6328 59.8906 19.1797L52.1953 37.5703C51.7188 38.6953 50.6172 39.4219 49.4219 39.4375L48.2812 42.1406L42.1484 39.5547L43.3047 36.8047C42.5469 35.9375 42.3359 34.7031 42.7891 33.6172L43.6484 31.5703H37.3594C34.4844 31.5703 31.7734 32.6953 29.7266 34.75C27.6797 36.7969 26.5469 39.5078 26.5469 42.3828V42.4062C26.5469 45.2812 27.6719 47.9922 29.7266 50.0391C31.7734 52.0859 34.4844 53.2188 37.3594 53.2188H56.2422C58.375 53.2188 60.1797 55 60.1797 57.1094V57.25C60.1797 59.3828 58.4453 61.1172 56.3125 61.1172H44.0781V68.9687H50.6719C50.9922 68.9687 51.2969 69.0938 51.5234 69.3281L54.8281 71.5391V71.8516C54.8281 72.6094 54.1953 73.2344 53.4219 73.2344ZM27.8906 72.0469C27.9219 72.0625 27.9531 72.0625 27.9844 72.0625H53.4219C53.4531 72.0625 53.4844 72.0547 53.5156 72.0469L50.75 70.1875L50.6953 70.125C50.6953 70.1172 50.6875 70.1172 50.6797 70.1172H42.9141V59.9219H56.3281C57.8125 59.9219 59.0234 58.7109 59.0234 57.2266V57.0859C59.0234 55.6094 57.7578 54.3672 56.2578 54.3672H37.375C34.1875 54.3672 31.1797 53.1172 28.9141 50.8516C26.6484 48.5859 25.3984 45.5781 25.3984 42.3906V42.3672C25.3984 39.1797 26.6484 36.1719 28.9141 33.9062C31.1797 31.6406 34.1875 30.3906 37.375 30.3906H45.4297L43.8828 34.0625C43.5625 34.8125 43.7734 35.6797 44.3906 36.2188L44.7109 36.5L43.6875 38.9297L47.6641 40.6016L48.6797 38.1875L49.125 38.25C49.9688 38.3672 50.7891 37.9063 51.1172 37.125L58.8125 18.7344C59.0078 18.2734 59.0078 17.7656 58.8203 17.2969C58.6328 16.8281 58.2734 16.4688 57.8125 16.2734L54.0312 14.6797C53.5703 14.4844 53.0625 14.4844 52.5938 14.6719C52.125 14.8594 51.7656 15.2187 51.5703 15.6797L47.7656 24.8438H36.6484C31.9844 24.8438 27.5781 26.6719 24.2578 30C20.9375 33.3281 19.1016 37.7266 19.1016 42.3906C19.1016 47.0547 20.9297 51.4531 24.25 54.7734C27.5703 58.0937 31.9687 59.9297 36.6328 59.9375H38.5078V70.1328H30.7422C30.7344 70.1328 30.7266 70.1328 30.7188 70.1406L30.6641 70.2031L27.8906 72.0469Z" fill="#1A1918"/>
<path d="M59.0938 16.5313L53.3828 14.1094L54.9687 10.3594L55.6484 10.6484L56.8047 7.91406C57.0469 7.33594 57.7109 7.07031 58.2891 7.3125L60.5547 8.27344C60.8359 8.39063 61.0469 8.60938 61.1641 8.89063C61.2813 9.17188 61.2734 9.47656 61.1562 9.75781L60 12.4922L60.6797 12.7813L59.0938 16.5313ZM54.2031 13.7812L58.7656 15.7109L59.8672 13.1094L59.1875 12.8203L60.5937 9.50781C60.6484 9.38281 60.6484 9.24219 60.5937 9.11719C60.5391 8.99219 60.4453 8.89063 60.3203 8.84375L58.0547 7.88281C57.7969 7.77344 57.5 7.89063 57.3906 8.15625L55.9922 11.4688L55.3125 11.1797L54.2031 13.7812Z" fill="#1A1918"/>
<path d="M55.6993 11.351L55.9432 10.7755L56.4755 11.001L56.2318 11.5765L55.6993 11.351ZM57.2055 11.9914L57.4493 11.4159L59.6434 12.3454L59.3997 12.9209L57.2055 11.9914Z" fill="#1A1918"/>
<path d="M37.3203 52.5078H55.7812V53.1641H37.3203V52.5078Z" fill="#D22A89"/>
</svg>
