<svg width="80" height="80" viewBox="0 0 80 80" fill="none" xmlns="http://www.w3.org/2000/svg">
<path d="M14.8323 3.24115C15.1063 3.23964 15.1063 3.23964 15.3859 3.2381C15.5852 3.23858 15.7844 3.23907 15.9897 3.23957C16.2047 3.23898 16.4196 3.23826 16.6346 3.23742C17.2245 3.23551 17.8144 3.23555 18.4043 3.23592C19.0408 3.23598 19.6773 3.23426 20.3138 3.23278C21.5606 3.23018 22.8074 3.22932 24.0542 3.22915C25.0679 3.229 26.0815 3.22836 27.0951 3.22737C29.9696 3.22461 32.8441 3.22317 35.7185 3.22341C35.9509 3.22343 35.9509 3.22343 36.1881 3.22344C36.4208 3.22346 36.4208 3.22346 36.6582 3.22348C39.1719 3.22361 41.6857 3.22062 44.1994 3.21621C46.7812 3.21172 49.3629 3.20957 51.9447 3.20984C53.3939 3.20994 54.8431 3.20908 56.2923 3.20572C57.5263 3.20287 58.7602 3.20219 59.9942 3.20432C60.6235 3.20533 61.2528 3.20536 61.8821 3.20264C62.4589 3.20018 63.0356 3.20064 63.6124 3.20336C63.9184 3.20406 64.2245 3.2017 64.5305 3.19922C66.174 3.21203 67.4266 3.56974 68.6322 4.70957C69.622 5.75888 70.0386 6.70352 70.0402 8.17255C70.0408 8.28454 70.0413 8.39653 70.0419 8.51191C70.0433 8.88724 70.0426 9.26253 70.0418 9.63787C70.0424 9.90966 70.0431 10.1814 70.0439 10.4532C70.0459 11.2002 70.0458 11.9471 70.0454 12.6941C70.0454 13.4997 70.0471 14.3052 70.0486 15.1108C70.0512 16.689 70.052 18.2673 70.0522 19.8455C70.0524 21.1283 70.053 22.411 70.054 23.6938C70.0567 27.33 70.0582 30.9661 70.058 34.6023C70.0579 34.7983 70.0579 34.9944 70.0579 35.1964C70.0579 35.3927 70.0579 35.589 70.0579 35.7912C70.0578 38.9729 70.0607 42.1547 70.0651 45.3364C70.0696 48.6027 70.0718 51.869 70.0715 55.1353C70.0714 56.9694 70.0723 58.8034 70.0756 60.6375C70.0785 62.1989 70.0792 63.7604 70.077 65.3219C70.076 66.1185 70.076 66.9152 70.0787 67.7119C70.0812 68.4414 70.0807 69.1709 70.078 69.9004C70.0775 70.1641 70.0781 70.4278 70.0798 70.6915C70.0914 72.5642 69.8995 73.9295 68.5822 75.3456C67.6075 76.251 66.5098 76.7569 65.1686 76.7595C64.8949 76.7611 64.8949 76.7611 64.6156 76.7628C64.4165 76.7625 64.2175 76.7621 64.0124 76.7617C63.7977 76.7624 63.5829 76.7632 63.3682 76.7642C62.7789 76.7664 62.1896 76.7666 61.6003 76.7666C60.9645 76.7668 60.3286 76.7689 59.6927 76.7707C58.3025 76.7742 56.9124 76.7755 55.5223 76.7763C54.6539 76.7768 53.7855 76.7778 52.9171 76.7789C50.5116 76.782 48.1062 76.7845 45.7007 76.785C45.4698 76.785 45.4698 76.785 45.2343 76.7851C44.9224 76.7851 44.6104 76.7852 44.2984 76.7853C44.1435 76.7853 43.9887 76.7853 43.8291 76.7853C43.5965 76.7854 43.5965 76.7854 43.3593 76.7854C40.8477 76.786 38.3362 76.7902 35.8247 76.796C33.2447 76.802 30.6647 76.805 28.0847 76.8051C26.6367 76.8052 25.1887 76.8065 23.7408 76.811C22.5076 76.8148 21.2745 76.816 20.0413 76.8136C19.4126 76.8125 18.7839 76.8126 18.1552 76.8162C17.5786 76.8194 17.0021 76.819 16.4254 76.8157C16.1202 76.8149 15.815 76.818 15.5098 76.8212C13.9062 76.806 12.5298 76.4468 11.3281 75.3419C10.3941 74.3166 9.98097 73.2655 9.97904 71.8853C9.97867 71.7739 9.9783 71.6624 9.97792 71.5476C9.97688 71.1713 9.97695 70.795 9.97701 70.4187C9.9765 70.1473 9.97592 69.8759 9.97527 69.6046C9.9737 68.8565 9.97313 68.1085 9.97271 67.3605C9.9721 66.5546 9.97061 65.7487 9.96924 64.9429C9.96615 62.9955 9.96458 61.0481 9.96319 59.1008C9.9625 58.1841 9.96167 57.2675 9.96085 56.3509C9.95819 53.3045 9.95592 50.2581 9.95479 47.2117C9.95449 46.4208 9.95419 45.63 9.95389 44.8392C9.95381 44.6426 9.95374 44.4461 9.95366 44.2436C9.95236 41.0588 9.9484 37.874 9.94333 34.6892C9.93816 31.4208 9.93535 28.1524 9.93485 24.884C9.93451 23.0483 9.93314 21.2127 9.92915 19.3771C9.92576 17.8139 9.9245 16.2507 9.92602 14.6875C9.92673 13.8899 9.92643 13.0923 9.9234 12.2946C9.92065 11.5642 9.9208 10.8338 9.92323 10.1034C9.9236 9.8394 9.92292 9.57536 9.92107 9.31133C9.90875 7.43742 10.0996 6.0717 11.4179 4.65464C12.3928 3.74893 13.4906 3.24303 14.8323 3.24115ZM13.6268 7.46192C13.3622 7.9521 13.3783 8.33627 13.3776 8.89226C13.3769 9.00139 13.3761 9.11051 13.3753 9.22295C13.3733 9.59045 13.3746 9.95787 13.3759 10.3254C13.3751 10.5908 13.3742 10.8562 13.373 11.1216C13.3704 11.8524 13.3708 12.5831 13.3717 13.3139C13.3721 14.1014 13.3698 14.889 13.3679 15.6765C13.3646 17.22 13.3639 18.7634 13.3642 20.3069C13.3644 21.5611 13.3638 22.8154 13.3626 24.0696C13.3623 24.4305 13.362 24.7914 13.3616 25.1523C13.3615 25.3319 13.3613 25.5115 13.3611 25.6965C13.3582 29.0956 13.3583 32.4947 13.3594 35.8938C13.3603 39.0052 13.357 42.1165 13.3519 45.2278C13.3466 48.4205 13.3442 51.6131 13.3449 54.8058C13.3453 56.5991 13.3445 58.3923 13.3406 60.1856C13.3373 61.7123 13.3367 63.2389 13.3397 64.7656C13.3411 65.5448 13.3413 66.324 13.3381 67.1032C13.3352 67.8163 13.3358 68.5292 13.3394 69.2423C13.3401 69.5005 13.3394 69.7587 13.3373 70.017C13.3346 70.3676 13.3367 70.718 13.3401 71.0686C13.34 71.2635 13.34 71.4583 13.3399 71.6591C13.4706 72.3669 13.7094 72.6222 14.2188 73.1251C14.6982 73.2849 15.0216 73.3008 15.5236 73.3006C15.7855 73.301 15.7855 73.301 16.0526 73.3015C16.2452 73.3011 16.4377 73.3006 16.6361 73.3001C16.942 73.3003 16.942 73.3003 17.2541 73.3005C17.8214 73.3009 18.3886 73.3003 18.9559 73.2995C19.5671 73.2988 20.1784 73.299 20.7896 73.2992C21.8491 73.2992 22.9085 73.2988 23.9679 73.2979C25.4997 73.2966 27.0315 73.2962 28.5632 73.296C31.0483 73.2957 33.5334 73.2946 36.0184 73.2931C38.4328 73.2917 40.8471 73.2906 43.2615 73.2899C43.4846 73.2899 43.4846 73.2899 43.7122 73.2898C44.4585 73.2896 45.2048 73.2894 45.951 73.2892C52.1445 73.2876 58.3379 73.2848 64.5313 73.2813C65.0494 72.4178 65.0195 71.4255 65.0201 70.4461C65.0205 70.285 65.0205 70.285 65.0209 70.1206C65.0217 69.7617 65.0213 69.4029 65.0209 69.0441C65.0212 68.7837 65.0216 68.5234 65.022 68.2631C65.0229 67.5486 65.0229 66.834 65.0227 66.1195C65.0227 65.3486 65.0236 64.5776 65.0243 63.8067C65.0256 62.2967 65.026 60.7866 65.0261 59.2766C65.0262 58.0493 65.0265 56.8219 65.027 55.5946C65.0284 52.115 65.0291 48.6354 65.029 45.1558C65.029 44.9682 65.029 44.7807 65.029 44.5874C65.029 44.3996 65.029 44.2118 65.0289 44.0183C65.0289 40.974 65.0304 37.9297 65.0326 34.8854C65.0348 31.7597 65.0359 28.6339 65.0358 25.5081C65.0357 23.7532 65.0361 21.9983 65.0378 20.2433C65.0392 18.7494 65.0396 17.2554 65.0385 15.7614C65.038 14.9992 65.038 14.237 65.0394 13.4748C65.0406 12.7768 65.0404 12.0789 65.039 11.3809C65.0388 11.1286 65.0391 10.8764 65.0399 10.6242C65.0891 8.61849 65.0891 8.61849 64.5313 6.71885C58.1948 6.70813 51.8583 6.69987 45.5218 6.69491C44.774 6.69433 44.0263 6.69372 43.2786 6.6931C43.0553 6.69292 43.0553 6.69292 42.8275 6.69273C40.4157 6.69069 38.004 6.68699 35.5922 6.68269C33.1183 6.67831 30.6445 6.6757 28.1706 6.67475C26.6435 6.6741 25.1165 6.67207 23.5894 6.66827C22.5429 6.66579 21.4964 6.66504 20.4499 6.66565C19.8457 6.66595 19.2415 6.66548 18.6373 6.66297C17.9828 6.66028 17.3283 6.6612 16.6737 6.66248C16.4821 6.66112 16.2904 6.65975 16.0929 6.65834C15.9177 6.65928 15.7426 6.66021 15.5621 6.66117C15.411 6.661 15.2598 6.66082 15.1041 6.66063C14.4693 6.74934 14.0788 7.01823 13.6268 7.46192Z" fill="#050505"/>
<path d="M26.9928 23.1998C27.4989 23.2032 28.0047 23.1998 28.5108 23.1958C31.0057 23.1923 32.9238 23.4015 34.8438 25.1563C36.4532 26.9172 36.8176 28.7933 36.8018 31.1219C36.8022 31.3447 36.8028 31.5674 36.8036 31.7902C36.8045 32.2532 36.8032 32.7162 36.8003 33.1792C36.7967 33.7708 36.7988 34.3622 36.8025 34.9538C36.8048 35.4123 36.804 35.8707 36.8024 36.3291C36.802 36.5473 36.8025 36.7654 36.804 36.9836C36.815 39.0978 36.815 39.0978 36.0938 39.8438C35.7323 40.0245 35.5226 40.0212 35.1202 40.0241C34.9122 40.0261 34.9122 40.0261 34.7 40.0282C34.5475 40.0288 34.395 40.0295 34.2378 40.0302C34.0775 40.0315 33.9171 40.0327 33.752 40.0341C33.2197 40.0379 32.6874 40.0405 32.1552 40.0428C31.9737 40.0436 31.7922 40.0444 31.6053 40.0453C30.645 40.0495 29.6847 40.0525 28.7244 40.0547C27.7313 40.0574 26.7383 40.0643 25.7452 40.0723C24.9826 40.0776 24.2201 40.0794 23.4575 40.0802C23.0914 40.0813 22.7252 40.0837 22.3591 40.0874C21.847 40.0923 21.3351 40.0924 20.8229 40.0912C20.6713 40.0938 20.5198 40.0963 20.3636 40.099C19.6386 40.0923 19.3244 40.0828 18.7377 39.6233C18.29 39.02 18.2602 38.7153 18.2536 37.9683C18.2516 37.771 18.2496 37.5737 18.2475 37.3705C18.2463 37.1537 18.2451 36.9368 18.244 36.72C18.2434 36.6106 18.2428 36.5012 18.2421 36.3884C18.2389 35.8078 18.2366 35.2271 18.2352 34.6465C18.2334 34.0511 18.2281 33.4558 18.2218 32.8605C18.2177 32.3993 18.2165 31.9382 18.2159 31.477C18.2151 31.2579 18.2133 31.0387 18.2104 30.8196C18.1826 28.5988 18.6351 26.8207 20.1563 25.1563C22.2202 23.2699 24.3279 23.1788 26.9928 23.1998Z" fill="#050505"/>
<path d="M19.9041 44.9786C20.1215 44.9774 20.1215 44.9774 20.3432 44.9762C20.5836 44.9761 20.5836 44.9761 20.8289 44.976C20.9983 44.9753 21.1678 44.9746 21.3424 44.9739C21.9139 44.9718 22.4855 44.9708 23.0571 44.9699C23.4654 44.9686 23.8736 44.9673 24.2819 44.966C25.5097 44.9622 26.7376 44.9599 27.9655 44.9579C28.3122 44.9573 28.6588 44.9567 29.0055 44.956C31.1574 44.9521 33.3093 44.9486 35.4611 44.9467C35.9597 44.9462 36.4582 44.9458 36.9568 44.9453C37.0807 44.9452 37.2046 44.9451 37.3323 44.945C39.3404 44.943 41.3485 44.9378 43.3566 44.9313C45.4173 44.9247 47.478 44.921 49.5387 44.9201C50.6962 44.9196 51.8535 44.9178 53.011 44.9126C54.0994 44.9078 55.1878 44.9069 56.2763 44.9088C56.6763 44.9088 57.0763 44.9075 57.4764 44.9048C58.0215 44.9013 58.5664 44.9025 59.1115 44.905C59.2707 44.9028 59.4299 44.9007 59.594 44.8984C60.333 44.9068 60.6677 44.9118 61.2664 45.377C61.7385 46.0217 61.8296 46.5525 61.7187 47.3438C61.3787 47.9023 61.0672 48.191 60.4687 48.4375C60.1297 48.477 60.1297 48.477 59.7551 48.4777C59.5402 48.4792 59.5402 48.4792 59.3209 48.4808C59.1641 48.4803 59.0073 48.4798 58.8457 48.4793C58.5951 48.4804 58.5951 48.4804 58.3395 48.4814C57.7779 48.4834 57.2163 48.4832 56.6547 48.4829C56.2528 48.4838 55.8509 48.4849 55.449 48.4861C54.4695 48.4887 53.4901 48.4895 52.5106 48.4897C51.7145 48.4899 50.9183 48.4905 50.1222 48.4915C47.8653 48.4942 45.6083 48.4957 43.3514 48.4955C43.2297 48.4954 43.108 48.4954 42.9827 48.4954C42.7999 48.4954 42.7999 48.4954 42.6135 48.4954C40.6388 48.4953 38.6642 48.4982 36.6895 48.5026C34.6622 48.5071 32.6349 48.5093 30.6075 48.509C29.4692 48.5089 28.331 48.5098 27.1927 48.5131C26.1223 48.5163 25.052 48.5162 23.9816 48.5139C23.5885 48.5136 23.1953 48.5143 22.8021 48.5162C22.266 48.5186 21.73 48.5172 21.1939 48.5148C21.0378 48.5164 20.8816 48.518 20.7208 48.5196C19.8301 48.5108 19.2913 48.4241 18.5937 47.8125C18.2081 47.2341 18.1748 46.7649 18.2812 46.0938C18.7315 45.2682 18.9779 44.9813 19.9041 44.9786Z" fill="#050505"/>
<path d="M20.0551 53.2599C20.1988 53.2591 20.3425 53.2583 20.4906 53.2574C20.729 53.2573 20.729 53.2573 20.9723 53.2572C21.1403 53.2565 21.3084 53.2558 21.4815 53.2551C22.0484 53.253 22.6153 53.2521 23.1822 53.2511C23.5872 53.2499 23.9921 53.2486 24.397 53.2473C25.6149 53.2434 26.8328 53.2411 28.0507 53.2391C28.3946 53.2385 28.7385 53.2379 29.0824 53.2373C31.2173 53.2333 33.3522 53.2299 35.4871 53.2279C35.9817 53.2275 36.4764 53.227 36.971 53.2266C37.0939 53.2264 37.2169 53.2263 37.3435 53.2262C39.3354 53.2242 41.3272 53.219 43.3191 53.2125C45.3633 53.2059 47.4076 53.2022 49.4519 53.2014C50.6 53.2009 51.748 53.199 52.8961 53.1939C53.976 53.1891 55.0558 53.1882 56.1356 53.19C56.5323 53.1901 56.929 53.1888 57.3257 53.186C57.8667 53.1825 58.4074 53.1838 58.9484 53.1863C59.1059 53.1841 59.2635 53.1819 59.4258 53.1797C60.132 53.1877 60.6259 53.2048 61.1888 53.6583C61.6987 54.2098 61.7804 54.5387 61.7749 55.296C61.6757 55.8775 61.3532 56.1567 60.9375 56.5625C60.5707 56.7459 60.3539 56.739 59.945 56.7402C59.8012 56.741 59.6575 56.7418 59.5094 56.7426C59.3504 56.7426 59.1915 56.7427 59.0277 56.7428C58.8597 56.7435 58.6916 56.7442 58.5185 56.7449C57.9516 56.747 57.3847 56.7479 56.8178 56.7489C56.4129 56.7501 56.0079 56.7514 55.603 56.7528C54.3851 56.7566 53.1672 56.7589 51.9493 56.7609C51.6054 56.7615 51.2615 56.7621 50.9176 56.7627C48.7827 56.7667 46.6478 56.7701 44.5129 56.7721C44.0183 56.7725 43.5237 56.773 43.029 56.7735C42.9061 56.7736 42.7831 56.7737 42.6565 56.7738C40.6646 56.7758 38.6728 56.781 36.6809 56.7875C34.6367 56.7941 32.5924 56.7978 30.5481 56.7986C29.4 56.7992 28.252 56.801 27.1039 56.8061C26.0241 56.811 24.9443 56.8118 23.8644 56.81C23.4677 56.8099 23.071 56.8113 22.6743 56.814C22.1333 56.8175 21.5926 56.8163 21.0517 56.8138C20.8941 56.8159 20.7365 56.8181 20.5742 56.8203C19.868 56.8123 19.3741 56.7953 18.8112 56.3417C18.3013 55.7902 18.2196 55.4613 18.2251 54.704C18.3244 54.1225 18.6468 53.8433 19.0625 53.4375C19.4293 53.2541 19.6461 53.261 20.0551 53.2599Z" fill="#050505"/>
<path d="M64.5312 6.71877C65.2026 6.65164 65.6269 6.65413 66.1523 7.0801C66.7692 7.71166 66.7385 8.17283 66.7397 9.02432C66.7401 9.13274 66.7405 9.24117 66.7408 9.35287C66.7419 9.71888 66.7418 10.0849 66.7417 10.4509C66.7423 10.7149 66.7428 10.9789 66.7435 11.2428C66.7451 11.9704 66.7456 12.6979 66.746 13.4255C66.7467 14.2093 66.7482 14.9931 66.7495 15.7769C66.7526 17.6708 66.7542 19.5646 66.7556 21.4584C66.7563 22.3497 66.7571 23.2409 66.7579 24.1322C66.7606 27.0937 66.7628 30.0553 66.764 33.0168C66.7643 33.7856 66.7646 34.5543 66.7649 35.3231C66.7649 35.5142 66.765 35.7052 66.7651 35.9021C66.7664 38.9993 66.7704 42.0965 66.7754 45.1937C66.7806 48.3716 66.7834 51.5494 66.7839 54.7272C66.7842 56.5123 66.7856 58.2973 66.7896 60.0824C66.793 61.6022 66.7943 63.122 66.7927 64.6418C66.792 65.4175 66.7923 66.1932 66.7954 66.969C66.7981 67.6788 66.798 68.3886 66.7955 69.0985C66.7952 69.3556 66.7958 69.6127 66.7977 69.8698C66.8 70.2188 66.7985 70.5677 66.7961 70.9167C66.7962 71.1107 66.7964 71.3047 66.7966 71.5046C66.703 72.138 66.4927 72.4732 66.0938 72.9688C65.5243 73.3484 65.2012 73.3066 64.5312 73.2813C64.5533 73.1873 64.5754 73.0933 64.5982 72.9964C64.8804 71.6554 64.8876 70.3341 64.8834 68.9709C64.8838 68.7103 64.8843 68.4497 64.8849 68.189C64.8862 67.4765 64.8856 66.764 64.8846 66.0515C64.8839 65.2816 64.885 64.5117 64.8858 63.7419C64.8872 62.2352 64.8869 60.7285 64.886 59.2217C64.8853 57.997 64.8852 56.7722 64.8856 55.5474C64.8856 55.3729 64.8857 55.1985 64.8857 55.0187C64.8858 54.6643 64.8859 54.3098 64.886 53.9554C64.8869 50.6334 64.8859 47.3115 64.8842 43.9896C64.8828 41.1406 64.8831 38.2917 64.8845 35.4427C64.8862 32.1325 64.8868 28.8223 64.8859 25.512C64.8858 25.1589 64.8857 24.8058 64.8856 24.4527C64.8855 24.1921 64.8855 24.1921 64.8854 23.9262C64.8852 22.7032 64.8856 21.4802 64.8863 20.2572C64.8872 18.7663 64.887 17.2755 64.8853 15.7846C64.8845 15.0243 64.8842 14.2639 64.8852 13.5036C64.8861 12.807 64.8856 12.1103 64.884 11.4137C64.8836 11.1623 64.8838 10.9109 64.8846 10.6596C64.8883 9.3168 64.8399 8.03183 64.5312 6.71877Z" fill="#EA8DC2"/>
<path d="M24.8747 26.6936C25.0664 26.6913 25.0664 26.6913 25.262 26.689C25.3989 26.6883 25.5358 26.6877 25.6768 26.687C25.819 26.6861 25.9612 26.6852 26.1077 26.6843C26.4083 26.6828 26.7089 26.6818 27.0096 26.6812C27.4674 26.6797 27.925 26.6748 28.3828 26.6699C28.6755 26.6689 28.9681 26.6681 29.2608 26.6675C29.3967 26.6655 29.5327 26.6636 29.6727 26.6616C30.7388 26.6655 31.4844 26.8413 32.3046 27.5683C33.3288 28.7347 33.4842 29.6701 33.468 31.1951C33.4676 31.3354 33.4673 31.4758 33.467 31.6204C33.4654 32.1414 33.461 32.6625 33.457 33.1836C33.4505 34.3502 33.4441 35.5168 33.4374 36.7187C29.5703 36.7187 25.7031 36.7187 21.7187 36.7187C21.709 35.5038 21.6994 34.2889 21.6894 33.0371C21.6851 32.6555 21.6809 32.2739 21.6765 31.8807C21.6751 31.5759 21.6739 31.271 21.6729 30.9662C21.6705 30.8098 21.6681 30.6535 21.6657 30.4924C21.6652 29.2087 21.9042 28.3054 22.8124 27.3437C23.4867 26.8717 24.0594 26.7013 24.8747 26.6936Z" fill="#CE2A87"/>
<path d="M30.7812 10.7811C32.2687 11.8274 33.0878 13.2242 33.4375 14.9999C33.6211 16.8652 33.0719 18.2422 32.08 19.7851C30.7727 21.1277 29.3641 21.7223 27.5097 21.787C25.8782 21.7497 24.537 21.1995 23.3398 20.0878C23.1561 19.8896 23.1561 19.8896 22.9687 19.6874C22.8624 19.5746 22.756 19.4618 22.6465 19.3456C21.758 18.0559 21.4154 16.5479 21.5625 14.9999C21.9204 13.2209 22.685 11.8568 24.1986 10.8257C26.1969 9.61936 28.7628 9.53995 30.7812 10.7811ZM25.7812 14.0624C25.2623 14.6212 25.1144 15.046 25.0879 15.7909C25.1309 16.7182 25.4031 17.1267 26.0644 17.7733C26.5754 18.134 26.8842 18.2372 27.5 18.2811C27.6017 18.0862 27.7024 17.8908 27.8027 17.6952C27.8589 17.5864 27.9151 17.4777 27.973 17.3656C28.5114 16.1806 28.2634 15.1371 27.8692 13.9464C27.6856 13.5603 27.6856 13.5603 27.2778 13.4502C26.6658 13.4307 26.2483 13.6982 25.7812 14.0624Z" fill="#050505"/>
<path d="M43.5517 36.5206C43.6997 36.5193 43.8478 36.518 44.0003 36.5166C44.2424 36.5168 44.2424 36.5168 44.4894 36.517C44.7456 36.5155 44.7456 36.5155 45.0069 36.5139C45.5723 36.5109 46.1376 36.5103 46.7029 36.5099C47.0956 36.5089 47.4883 36.5079 47.881 36.5068C48.7046 36.5049 49.5282 36.5043 50.3517 36.5045C51.3025 36.5047 52.2532 36.5014 53.204 36.4965C54.1198 36.4919 55.0357 36.4908 55.9516 36.491C56.3407 36.4906 56.7298 36.4892 57.1189 36.4868C57.6631 36.4837 58.2072 36.4846 58.7515 36.4865C58.9122 36.4848 59.073 36.483 59.2386 36.4812C60.1663 36.4894 60.7024 36.5647 61.4063 37.1874C61.7919 37.7658 61.8251 38.2351 61.7188 38.9062C61.25 39.7656 61.25 39.7656 60.7813 39.9999C60.5395 40.016 60.2972 40.0224 60.0549 40.024C59.8252 40.026 59.8252 40.026 59.5909 40.0281C59.4223 40.0287 59.2537 40.0294 59.08 40.0301C58.8144 40.032 58.8144 40.032 58.5434 40.0339C57.9553 40.0378 57.3673 40.0404 56.7792 40.0427C56.5788 40.0435 56.3783 40.0443 56.1718 40.0452C55.3297 40.0485 54.4875 40.0515 53.6453 40.0532C52.4385 40.0558 51.2317 40.061 50.0249 40.0699C49.074 40.0766 48.1231 40.0791 47.1722 40.0801C46.7677 40.0812 46.3632 40.0836 45.9587 40.0873C45.393 40.0922 44.8276 40.0923 44.2619 40.0911C44.0943 40.0937 43.9266 40.0962 43.7539 40.0989C42.6176 40.0893 42.6176 40.0893 42.0075 39.6255C41.5827 39.0271 41.4961 38.5382 41.5625 37.8124C42.0232 36.8741 42.5203 36.5249 43.5517 36.5206Z" fill="#050505"/>
<path d="M44.2544 19.8988C44.4316 19.8975 44.6088 19.8961 44.7913 19.8947C45.3769 19.8912 45.9622 19.8935 46.5478 19.8962C46.9547 19.8956 47.3616 19.8949 47.7685 19.8939C48.6212 19.8925 49.4739 19.8943 50.3266 19.8981C51.3115 19.9023 52.2964 19.9009 53.2813 19.8966C54.23 19.8927 55.1786 19.8931 56.1273 19.8954C56.5305 19.8959 56.9337 19.8953 57.3369 19.8934C57.9003 19.8915 58.4634 19.8945 59.0268 19.8988C59.1937 19.8973 59.3606 19.8957 59.5325 19.894C60.6647 19.9103 60.6647 19.9103 61.2717 20.3773C61.7369 21.0235 61.8293 21.5546 61.7187 22.3437C61.3788 22.902 61.0675 23.1918 60.4687 23.4374C60.1187 23.4776 60.1187 23.4776 59.7296 23.4792C59.5815 23.4805 59.4334 23.4819 59.2809 23.4832C59.1195 23.4831 58.9581 23.483 58.7918 23.4828C58.5357 23.4844 58.5357 23.4844 58.2743 23.486C57.709 23.489 57.1437 23.4896 56.5783 23.4899C56.1856 23.4909 55.7929 23.492 55.4002 23.4931C54.5766 23.4949 53.7531 23.4955 52.9295 23.4953C51.9787 23.4951 51.028 23.4984 50.0773 23.5034C49.1614 23.508 48.2455 23.5091 47.3297 23.5089C46.9406 23.5093 46.5514 23.5106 46.1623 23.5131C45.6181 23.5161 45.074 23.5152 44.5298 23.5133C44.369 23.5151 44.2083 23.5168 44.0427 23.5187C43.1148 23.5105 42.5826 23.4297 41.875 22.8124C41.5616 22.3641 41.5208 22.0332 41.5722 21.4941C41.5805 21.3783 41.5887 21.2624 41.5973 21.1431C42.0392 19.8263 43.0745 19.8877 44.2544 19.8988Z" fill="#050505"/>
<path d="M43.3885 28.2385C43.6142 28.2362 43.6142 28.2362 43.8445 28.2338C44.0918 28.2336 44.0918 28.2336 44.3441 28.2335C44.5179 28.2322 44.6917 28.2309 44.8708 28.2295C45.4471 28.2257 46.0234 28.2244 46.5997 28.2234C46.9997 28.222 47.3996 28.2205 47.7996 28.2191C48.6388 28.2165 49.478 28.2153 50.3172 28.2148C51.2862 28.2143 52.2551 28.2096 53.224 28.2031C54.157 28.197 55.0899 28.1952 56.0229 28.195C56.4194 28.1944 56.816 28.1924 57.2125 28.1892C57.7672 28.185 58.3218 28.1857 58.8765 28.1877C59.0404 28.1854 59.2044 28.1831 59.3732 28.1807C60.0949 28.1879 60.617 28.1938 61.1933 28.6583C61.6978 29.2107 61.7804 29.5415 61.7749 30.2961C61.6757 30.8776 61.3532 31.1568 60.9375 31.5626C60.5629 31.7499 60.3289 31.7397 59.9105 31.7418C59.76 31.743 59.6095 31.7441 59.4545 31.7452C59.2888 31.7456 59.1231 31.7461 58.9524 31.7465C58.7784 31.7475 58.6043 31.7485 58.425 31.7496C57.8471 31.7527 57.2692 31.7545 56.6913 31.7561C56.3958 31.757 56.3958 31.757 56.0944 31.758C55.1596 31.7609 54.2248 31.7632 53.29 31.7645C52.211 31.766 51.1322 31.7701 50.0533 31.7765C49.1187 31.7817 48.1842 31.7836 47.2496 31.7842C46.8521 31.785 46.4546 31.7868 46.057 31.7897C45.5011 31.7935 44.9454 31.7934 44.3895 31.7923C44.1424 31.7953 44.1424 31.7953 43.8903 31.7983C42.7726 31.7903 42.7726 31.7903 42.1701 31.4201C41.742 30.9468 41.5868 30.655 41.5039 30.0196C41.5783 29.3993 41.8016 29.0789 42.1875 28.5938C42.6869 28.2609 42.8151 28.2417 43.3885 28.2385Z" fill="#040404"/>
<path d="M53.9063 63.2813C54.6298 63.6958 55.1881 64.2108 55.7617 64.8048C55.8395 64.8839 55.9172 64.9631 55.9973 65.0446C56.1865 65.2374 56.3746 65.4311 56.5625 65.6251C57.3063 64.9921 58.0382 64.3481 58.7628 63.6933C59.3239 63.2146 59.7395 63.2319 60.4688 63.2813C61.1166 63.5611 61.439 63.8835 61.7188 64.5313C61.809 65.0627 61.8333 65.4317 61.5522 65.9064C60.9079 66.7509 60.1979 67.5054 59.4434 68.252C59.2695 68.4277 59.2695 68.4277 59.0921 68.6069C58.979 68.7196 58.8659 68.8323 58.7494 68.9484C58.6482 69.0493 58.547 69.1502 58.4427 69.2541C57.7608 69.8492 57.2009 70.1171 56.3013 70.0843C55.5969 69.9212 55.1729 69.4145 54.6875 68.9063C54.4532 68.6752 54.2188 68.4441 53.9844 68.213C53.8017 68.0278 53.6193 67.8424 53.4375 67.6563C52.7047 68.267 52.0234 68.9031 51.3593 69.5881C50.9413 69.9907 50.6625 70.0247 50.0977 70.0294C49.9772 70.0316 49.8568 70.0338 49.7327 70.0361C49.3335 69.9959 49.09 69.8977 48.75 69.6876C48.2574 69.0718 48.1981 68.5892 48.2813 67.8126C48.6105 67.1579 49.054 66.689 49.571 66.1744C49.6493 66.0961 49.7277 66.0178 49.8084 65.9371C49.9731 65.7729 50.1382 65.609 50.3036 65.4456C50.5572 65.1948 50.8096 64.9428 51.0617 64.6906C52.7047 63.0555 52.7047 63.0555 53.9063 63.2813Z" fill="#040404"/>
<path d="M44.1449 11.5156C44.274 11.5149 44.403 11.5143 44.536 11.5136C44.8085 11.5127 45.081 11.5126 45.3535 11.5133C45.7695 11.5138 46.1853 11.5101 46.6013 11.5061C46.8665 11.5058 47.1317 11.5057 47.3969 11.5058C47.5207 11.5044 47.6446 11.5029 47.7723 11.5015C48.6426 11.5087 49.1173 11.7107 49.8102 12.2474C50.1428 12.6902 50.0716 13.146 50.0568 13.6799C49.9779 14.2117 49.7677 14.4858 49.375 14.8438C49.0243 15.0192 48.8263 15.0233 48.437 15.0302C48.2437 15.034 48.2437 15.034 48.0466 15.0378C47.4571 15.0448 46.8676 15.0512 46.278 15.0548C45.9672 15.0574 45.6564 15.0616 45.3456 15.0676C44.8973 15.0762 44.4492 15.0796 44.0009 15.0819C43.8623 15.0854 43.7238 15.089 43.5811 15.0926C42.8791 15.0902 42.5933 15.0733 42.0239 14.6263C41.5789 14.032 41.4954 13.5454 41.5625 12.8126C42.1645 11.5863 42.8658 11.5141 44.1449 11.5156Z" fill="#040404"/>
<path d="M30.4688 26.7188C31.564 26.9415 32.1611 27.2044 32.8516 28.125C33.2209 28.7582 33.3009 29.2373 33.299 29.9638C33.299 30.1108 33.299 30.2578 33.299 30.4092C33.2981 30.5666 33.2973 30.7241 33.2965 30.8862C33.2963 31.0483 33.2961 31.2105 33.2958 31.3775C33.295 31.8949 33.293 32.4123 33.291 32.9297C33.2902 33.2806 33.2895 33.6316 33.2889 33.9825C33.2872 34.8425 33.2845 35.7025 33.2812 36.5625C32.7656 36.5625 32.25 36.5625 31.7188 36.5625C31.7166 36.2423 31.7166 36.2423 31.7143 35.9156C31.7081 35.1168 31.6978 34.3181 31.6863 33.5193C31.6819 33.1749 31.6786 32.8305 31.6764 32.486C31.673 31.9883 31.6657 31.4907 31.6577 30.993C31.6575 30.8413 31.6573 30.6895 31.6571 30.5331C31.6272 29.1081 31.2237 27.9245 30.4688 26.7188Z" fill="#D378AB"/>
<path d="M27.5 13.2812C28.2849 13.356 28.7659 13.5594 29.375 14.0625C29.8121 14.5941 30.038 15.1005 30.0684 15.791C29.969 16.6849 29.7283 17.1422 29.1016 17.7832C28.5433 18.1589 28.165 18.2413 27.5 18.2812C27.5677 18.1217 27.5677 18.1217 27.6367 17.959C28.2161 16.4463 28.2311 15.458 27.6367 13.9618C27.5 13.5938 27.5 13.5938 27.5 13.2812Z" fill="#EC8EC4"/>
</svg>
