<svg width="80" height="80" viewBox="0 0 80 80" fill="none" xmlns="http://www.w3.org/2000/svg">
<path d="M16.6328 54.3906C16.6328 55.6193 17.1209 56.7977 17.9897 57.6665C18.8586 58.5353 20.0369 59.0234 21.2656 59.0234C22.4943 59.0234 23.6727 58.5353 24.5415 57.6665C25.4103 56.7977 25.8984 55.6193 25.8984 54.3906C25.8984 53.1619 25.4103 51.9835 24.5415 51.1147C23.6727 50.2459 22.4943 49.7578 21.2656 49.7578C20.0369 49.7578 18.8586 50.2459 17.9897 51.1147C17.1209 51.9835 16.6328 53.1619 16.6328 54.3906Z" fill="#D22A89"/>
<path d="M30.6328 37.9219L25.75 18.1562V18.1484C25.7031 17.9141 25.6406 17.6562 25.5781 17.3828C25.0156 14.8984 24.164 11.1484 26.1406 8.67188C27.375 7.13281 29.5234 6.35156 32.539 6.35156V7.52344C29.8984 7.52344 28.0547 8.15625 27.0547 9.40625C25.4297 11.4453 26.2031 14.8594 26.7187 17.125C26.7812 17.3984 26.8437 17.6563 26.8906 17.8984L31.7656 37.6484L30.6328 37.9219ZM57.1484 37.8984L56.0078 37.6172L60.8828 17.8984C60.9531 17.5391 61.039 17.1562 61.125 16.7578C61.6406 14.4375 62.3437 11.2578 60.8281 9.36719C59.8437 8.14063 57.9687 7.51562 55.2421 7.51562V6.34375C58.3828 6.34375 60.5078 7.09375 61.7421 8.63281C63.6093 10.9609 62.8359 14.4531 62.2734 17.0078C62.1875 17.4141 62.1015 17.7891 62.0312 18.1328L62.0234 18.1641L57.1484 37.8984ZM50.4375 74.4062C48.6875 74.4062 46.9921 73.7891 45.6328 72.6406C43.9687 71.2266 43.0078 69.1562 43.0078 66.9688L43.0468 47.0781H44.7265L44.7109 53.7031H59.4062C60.9765 53.7031 62.4062 54.3594 63.4218 55.5625C64.3906 56.6953 64.9297 58.2266 64.9453 59.8594C64.9765 62.9609 63.3515 66.3125 60.3672 69.2969C57.7265 71.9375 54.3828 73.8594 51.6406 74.3047C51.2422 74.375 50.8437 74.4062 50.4375 74.4062ZM43.6718 47.7031L43.6406 66.9688C43.6406 68.9688 44.5156 70.8672 46.039 72.1641C47.5625 73.4609 49.5703 74.0156 51.5468 73.6953C54.164 73.2656 57.3828 71.4141 59.9375 68.8594C62.8047 65.9922 64.3672 62.8047 64.3359 59.875C64.3203 58.3828 63.8281 57 62.9609 55.9766C62.0468 54.9062 60.8203 54.3359 59.4218 54.3359H44.7187V54.7656H58.8437C62.0312 54.7656 63.7968 56.6641 63.8203 60.1094C63.8359 62.6953 62.3515 65.7031 59.7656 68.3672C57.4062 70.7891 54.3984 72.6328 51.914 73.1719C49.875 73.6172 47.9609 73.2109 46.5156 72.0469C44.9609 70.7969 44.0781 68.7344 44.0781 66.3984L44.1093 47.7031H43.6718ZM44.7187 55.3906L44.6953 66.3984C44.6953 68.5469 45.5 70.4219 46.8984 71.5547C48.1953 72.6016 49.9218 72.9531 51.7656 72.5547C54.1406 72.0391 57.0312 70.2656 59.3046 67.9297C61.7812 65.3828 63.1953 62.5312 63.1875 60.1094C63.1796 57.9531 62.414 55.3906 58.8359 55.3906H44.7187Z" fill="#1A1918"/>
<path d="M43.5391 55.3906H26.6641V53.7109H43.5234V54.3359H27.2891V54.7656H43.5391V55.3906ZM21.2656 56.8984C19.8828 56.8984 18.7578 55.7734 18.7578 54.3906C18.7578 53.0078 19.8828 51.8828 21.2656 51.8828C22.6484 51.8828 23.7734 53.0078 23.7734 54.3906C23.7812 55.7734 22.6563 56.8984 21.2656 56.8984ZM21.2656 52.5C20.2266 52.5 19.3828 53.3438 19.3828 54.3828C19.3828 55.4219 20.2266 56.2656 21.2656 56.2656C22.3047 56.2656 23.1484 55.4219 23.1484 54.3828C23.1562 53.3516 22.3047 52.5 21.2656 52.5Z" fill="#1A1918"/>
<path d="M21.2656 60.9922C17.625 60.9922 14.6641 58.0312 14.6641 54.3906C14.6641 50.75 17.625 47.7891 21.2656 47.7891C24.9063 47.7891 27.8672 50.75 27.8672 54.3906C27.875 58.0312 24.9141 60.9922 21.2656 60.9922ZM21.2656 48.9531C18.2734 48.9531 15.8359 51.3906 15.8359 54.3828C15.8359 57.375 18.2734 59.8125 21.2656 59.8125C24.2578 59.8125 26.6953 57.375 26.6953 54.3828C26.6953 51.3906 24.2656 48.9531 21.2656 48.9531Z" fill="#1A1918"/>
<path d="M45.4219 48.1016H42.3828V44H45.4219V48.1016ZM43.5469 46.9297H44.2422V45.1719H43.5469V46.9297Z" fill="#7030A0"/>
<path d="M51.336 44.5312H36.4376C33.5313 44.5312 31.4532 42.5781 30.2735 38.7266V38.7109L30.1172 38.0938C30.0704 37.9062 30.1094 37.7109 30.2266 37.5547C30.3438 37.3984 30.5235 37.3125 30.7188 37.3125H31.8516C32.086 37.3125 32.2891 37.4688 32.3516 37.6875C33.211 40.6484 34.2735 42.3594 37.1954 42.3594H50.5938C53.4532 42.3594 54.4376 40.8516 55.461 37.6797C55.5313 37.4609 55.7344 37.3125 55.961 37.3125H57.086C57.2813 37.3125 57.461 37.3984 57.5782 37.5547C57.6954 37.7109 57.7344 37.9062 57.6876 38.0938L57.5313 38.6875C56.4297 42.4609 54.2344 44.5312 51.336 44.5312ZM30.8751 38.5547C31.9844 42.1562 33.8047 43.9141 36.4376 43.9141H51.336C52.7422 43.9141 53.961 43.375 54.9532 42.3047C55.7891 41.3984 56.4766 40.0938 56.9297 38.5312L57.0782 37.9531H56.0235C54.9375 41.2969 53.7891 42.9922 50.586 42.9922H37.1954C33.9376 42.9922 32.6641 40.9766 31.7735 37.9531H30.711L30.8751 38.5547ZM38.6094 6.76562V7.10938H32.9844V6.76562H38.6094ZM38.8438 5.59375H32.7501C32.2344 5.59375 31.8126 6.01562 31.8126 6.53125V7.34375C31.8126 7.85938 32.2344 8.28125 32.7501 8.28125H38.8438C39.3594 8.28125 39.7813 7.85938 39.7813 7.34375V6.53125C39.7813 6.01562 39.3594 5.59375 38.8438 5.59375ZM54.8751 6.76562V7.10938H49.2501V6.76562H54.8751ZM55.1094 5.59375H49.0157C48.5001 5.59375 48.0782 6.01562 48.0782 6.53125V7.34375C48.0782 7.85938 48.5001 8.28125 49.0157 8.28125H55.1094C55.6251 8.28125 56.0469 7.85938 56.0469 7.34375V6.53125C56.0469 6.01562 55.6251 5.59375 55.1094 5.59375Z" fill="#7030A0"/>
</svg>
