<svg width="35" height="35" viewBox="0 0 35 35" fill="none" xmlns="http://www.w3.org/2000/svg">
<path d="M27.7813 7.16034C26.4443 5.80982 24.8518 4.73902 23.0966 4.01042C21.3414 3.28181 19.4588 2.90997 17.5584 2.91659C9.59587 2.91659 3.10629 9.40617 3.10629 17.3687C3.10629 19.9208 3.77712 22.3999 5.03129 24.5874L2.98962 32.0833L10.6459 30.0708C12.7605 31.2228 15.1375 31.8353 17.5584 31.8353C25.5209 31.8353 32.0105 25.3458 32.0105 17.3833C32.0105 13.5187 30.5084 9.88742 27.7813 7.16034ZM17.5584 29.3853C15.4 29.3853 13.2855 28.802 11.4334 27.7083L10.9959 27.4458L6.44587 28.6416L7.65629 24.2083L7.36462 23.7562C6.1655 21.8413 5.52879 19.628 5.52712 17.3687C5.52712 10.7478 10.923 5.35201 17.5438 5.35201C20.7521 5.35201 23.7709 6.60617 26.0313 8.88117C27.1505 9.99529 28.0375 11.3205 28.6408 12.7799C29.2441 14.2394 29.5518 15.804 29.5459 17.3833C29.575 24.0041 24.1792 29.3853 17.5584 29.3853ZM24.15 20.402C23.7855 20.227 22.0063 19.352 21.6855 19.2208C21.35 19.1041 21.1167 19.0458 20.8688 19.3958C20.6209 19.7603 19.9355 20.577 19.7313 20.8103C19.5271 21.0583 19.3084 21.0874 18.9438 20.8978C18.5792 20.7228 17.4125 20.3291 16.0417 19.1041C14.9625 18.1416 14.248 16.9603 14.0292 16.5958C13.825 16.2312 14 16.0416 14.1896 15.852C14.35 15.6916 14.5542 15.4291 14.7292 15.2249C14.9042 15.0208 14.9771 14.8603 15.0938 14.627C15.2105 14.3791 15.1521 14.1749 15.0646 13.9999C14.9771 13.8249 14.248 12.0458 13.9563 11.3166C13.6646 10.6166 13.3584 10.7041 13.1396 10.6895H12.4396C12.1917 10.6895 11.8125 10.777 11.4771 11.1416C11.1563 11.5062 10.223 12.3812 10.223 14.1603C10.223 15.9395 11.5209 17.6603 11.6959 17.8937C11.8709 18.1416 14.248 21.7874 17.8646 23.3478C18.725 23.727 19.3959 23.9458 19.9209 24.1062C20.7813 24.3833 21.5688 24.3395 22.1959 24.252C22.8959 24.1499 24.3396 23.377 24.6313 22.5312C24.9375 21.6853 24.9375 20.9708 24.8355 20.8103C24.7334 20.6499 24.5146 20.577 24.15 20.402Z" fill="#7030A0"/>
</svg>
